<?xml version="1.0" encoding="UTF-8"?>
<svg width="34" height="41" viewBox="0 0 34 41" fill="none" class="size-96" xmlns="http://www.w3.org/2000/svg"><path d="M21.3418 1C21.9656 1.00008 22.5827 1.14322 23.1426 1.41992L28.5723 4.10352L28.626 4.12988L28.6768 4.16309V4.16406H28.6787C28.6799 4.16483 28.6813 4.16648 28.6836 4.16797C28.6883 4.17105 28.696 4.17568 28.7051 4.18164C28.7233 4.19356 28.7503 4.2112 28.7842 4.2334C28.8523 4.27801 28.9497 4.34195 29.0674 4.41895C29.3034 4.57344 29.6213 4.78103 29.9453 4.99316C30.5926 5.41692 31.2699 5.86038 31.3828 5.93457C31.6535 6.11248 32.2656 6.57032 32.2656 7.40625C32.2656 7.39804 32.2674 7.4474 32.2734 7.59473C32.2788 7.72512 32.2859 7.90878 32.2959 8.13867C32.3159 8.59885 32.3455 9.24205 32.3799 10.0068C32.4487 11.5362 32.5401 13.5527 32.6318 15.5752C32.814 19.5915 32.9995 23.7025 32.999 23.9658C32.9983 24.3704 32.8842 24.8294 32.6406 25.2246C32.3896 25.6317 31.9469 26.0467 31.2871 26.1396C31.0338 26.1753 29.8027 26.3831 28.6064 26.5869C28.0366 26.684 27.4821 26.7783 27.0605 26.8506L26.165 36.2949C26.0757 37.2358 25.3393 37.9769 24.4102 38.0918L17.1221 38.9922L16.999 39.0078L16.877 38.9922L9.59082 38.0918H9.58984C8.66114 37.9767 7.92534 37.2358 7.83594 36.2949L6.94043 26.8535L2.68652 26.1357V26.1338C1.50942 25.953 1.02998 24.8944 1.00195 24.083V23.9199L1.73535 7.3623L1.73926 7.28418L1.75488 7.20703C1.86162 6.68157 2.17562 6.22548 2.61816 5.93457L2.61914 5.93359L5.32324 4.16309L5.37402 4.12988L5.42773 4.10352L10.8574 1.41992L11.0703 1.32227C11.572 1.1095 12.1125 1.0001 12.6582 1H21.3418Z" fill="#D8E2ED" stroke="#D8E2ED" stroke-width="2"/><mask id="mask0_399_81" maskUnits="userSpaceOnUse" x="1" y="5" width="7" height="21" style="mask-type: alpha;"><path fill-rule="evenodd" clip-rule="evenodd" d="M5.86949 5L3.16619 6.77024C2.96435 6.90286 2.81814 7.10184 2.75264 7.3303C2.73831 7.38029 2.73294 7.43226 2.73064 7.48421L2.00044 23.9634C1.9805 24.5 2.27523 25.0683 2.85184 25.1495L7.88949 26L5.86949 5Z" fill="#243D7C"/></mask><g mask="url(#mask0_399_81)"><path fill-rule="evenodd" clip-rule="evenodd" d="M5.86949 5L3.16619 6.77024C2.96435 6.90286 2.81814 7.10184 2.75264 7.3303C2.73831 7.38029 2.73294 7.43226 2.73064 7.48421L2.00044 23.9634C1.9805 24.5 2.27523 25.0683 2.85184 25.1495L7.88949 26L5.86949 5Z" fill="#FFD700"/><path fill-rule="evenodd" clip-rule="evenodd" d="M1.99948 19L8.99948 20V27L1.99948 26V19Z" fill="#FFD700"/><path fill-rule="evenodd" clip-rule="evenodd" d="M1.99948 17L8.99948 18V20L1.99948 19V17Z" fill="#004B87"/><path fill-rule="evenodd" clip-rule="evenodd" d="M1.99948 13L8.99948 14V16L1.99948 15V13Z" fill="#004B87"/><path fill-rule="evenodd" clip-rule="evenodd" d="M1.99948 15L8.99948 16V18L1.99948 17V15Z" fill="#FFD700"/></g><mask id="mask1_399_81" maskUnits="userSpaceOnUse" x="26" y="5" width="6" height="21" style="mask-type: alpha;"><path fill-rule="evenodd" clip-rule="evenodd" d="M28.1295 5L30.8326 6.77024C31.0345 6.90286 31.1807 7.10185 31.2462 7.3303C31.2605 7.38029 31.2659 7.43226 31.2682 7.48421L31.9983 23.9634C32.0205 24.5 31.7236 25.0683 31.147 25.1495L26.1095 26L28.1295 5Z" fill="#243D7C"/></mask><g mask="url(#mask1_399_81)"><path fill-rule="evenodd" clip-rule="evenodd" d="M28.1295 5L30.8326 6.77024C31.0345 6.90286 31.1807 7.10185 31.2462 7.3303C31.2605 7.38029 31.2659 7.43226 31.2682 7.48421L31.9983 23.9634C32.0205 24.5 31.7236 25.0683 31.147 25.1495L26.1095 26L28.1295 5Z" fill="#FFD700"/><path fill-rule="evenodd" clip-rule="evenodd" d="M32.9995 19L25.9995 20V27L32.9995 26V19Z" fill="#FFD700"/><path fill-rule="evenodd" clip-rule="evenodd" d="M32.9995 17L25.9995 18V20L32.9995 19V17Z" fill="#004B87"/><path fill-rule="evenodd" clip-rule="evenodd" d="M32.9995 13L25.9995 14V16L32.9995 15V13Z" fill="#004B87"/><path fill-rule="evenodd" clip-rule="evenodd" d="M32.9995 15L25.9995 16V18L32.9995 17V15Z" fill="#FFD700"/></g><path d="M9.71018 37.0996L16.9985 38L24.2868 37.0996C24.7577 37.0414 25.1244 36.6676 25.1687 36.2006L28.1282 5L22.6984 2.31672C22.2769 2.10844 21.8121 2 21.3409 2H12.6561C12.1848 2 11.7201 2.10844 11.2986 2.31672L5.86875 5L8.82831 36.2006C8.8726 36.6676 9.2393 37.0414 9.71018 37.0996Z" fill="#FFD700"/><mask id="mask2_399_81" maskUnits="userSpaceOnUse" x="5" y="2" width="24" height="36" style="mask-type: alpha;"><path d="M21.3404 2C21.8117 2 22.2773 2.10812 22.6988 2.31641L28.1285 5L25.1686 36.2002C25.1243 36.6672 24.7576 37.0414 24.2867 37.0996L16.9986 38L9.71054 37.0996C9.23966 37.0414 8.873 36.6672 8.82871 36.2002L5.86875 5L11.2984 2.31641C11.7199 2.10815 12.1847 2.00003 12.6559 2H21.3404Z" fill="white"/></mask><g mask="url(#mask2_399_81)"><rect x="7.99949" y="34" width="18" height="4" fill="#EBCA02"/><rect x="7.99949" y="32" width="18" height="2" fill="#004B87"/><g transform="translate(17 17.5) rotate(0) scale(0.87) translate(-9 -9)"><g transform="scale(0.0072) translate(0 0)">
<path xmlns="http://www.w3.org/2000/svg" fill-rule="evenodd" clip-rule="evenodd" d="M1630.74 1997.5L1714.49 1495.5L1487.85 1661.43L1250 1340.62L1012.16 1661.43L785.501 1495.5L869.247 1997.5H1630.74ZM977.493 1162.05L1061.24 660.057L834.579 826.005L596.739 505.211L358.887 826.005L132.24 660.057L215.986 1162.05H977.493Z" fill="#275DA6" stroke="#275DA6" stroke-width="32.4244" stroke-miterlimit="2.613"/>
<path xmlns="http://www.w3.org/2000/svg" fill-rule="evenodd" clip-rule="evenodd" d="M2293.44 1162.05L2377.19 660.057L2150.54 826.005L1912.69 505.211L1674.85 826.005L1448.18 660.057L1531.95 1162.05H2293.44Z" fill="#275DA6" stroke="#275DA6" stroke-width="38.9093" stroke-miterlimit="2.613"/>
</g></g><path d="M23.9995 1C23.9995 3.8 21.1994 6.6 16.9995 8C12.7994 6.6 9.99948 3.8 9.99948 1C9.99948 -2.86599 13.1335 -6 16.9995 -6C20.8655 -6 23.9995 -2.86599 23.9995 1Z" fill="#004B87"/><path d="M21.9995 1C21.9995 3 19.9995 5 16.9995 6C13.9995 5 11.9995 3 11.9995 1C11.9995 -1.76142 14.2381 -4 16.9995 -4C19.761 -4 21.9995 -1.76142 21.9995 1Z" fill="#998100"/></g><path opacity="0.15" d="M21.3413 2C21.8124 2.00006 22.2773 2.10818 22.6987 2.31641L28.1284 5H28.1382L30.8325 6.77051C31.0564 6.91762 31.2123 7.1462 31.2651 7.40625L31.9985 23.9639C32.0204 24.5003 31.7234 25.0682 31.1469 25.1494L26.1362 25.9951L25.1684 36.2002C25.1241 36.6672 24.7575 37.0414 24.2866 37.0996L16.9985 38V2H21.3413Z" fill="black"/></svg>