<?xml version="1.0" encoding="UTF-8"?>
<svg width="34" height="41" viewBox="0 0 34 41" fill="none" class="size-96" xmlns="http://www.w3.org/2000/svg"><path d="M21.3418 1C21.9656 1.00008 22.5827 1.14322 23.1426 1.41992L28.5723 4.10352L28.626 4.12988L28.6768 4.16309V4.16406H28.6787C28.6799 4.16483 28.6813 4.16648 28.6836 4.16797C28.6883 4.17105 28.696 4.17568 28.7051 4.18164C28.7233 4.19356 28.7503 4.2112 28.7842 4.2334C28.8523 4.27801 28.9497 4.34195 29.0674 4.41895C29.3034 4.57344 29.6213 4.78103 29.9453 4.99316C30.5926 5.41692 31.2699 5.86038 31.3828 5.93457C31.6535 6.11248 32.2656 6.57032 32.2656 7.40625C32.2656 7.39804 32.2674 7.4474 32.2734 7.59473C32.2788 7.72512 32.2859 7.90878 32.2959 8.13867C32.3159 8.59885 32.3455 9.24205 32.3799 10.0068C32.4487 11.5362 32.5401 13.5527 32.6318 15.5752C32.814 19.5915 32.9995 23.7025 32.999 23.9658C32.9983 24.3704 32.8842 24.8294 32.6406 25.2246C32.3896 25.6317 31.9469 26.0467 31.2871 26.1396C31.0338 26.1753 29.8027 26.3831 28.6064 26.5869C28.0366 26.684 27.4821 26.7783 27.0605 26.8506L26.165 36.2949C26.0757 37.2358 25.3393 37.9769 24.4102 38.0918L17.1221 38.9922L16.999 39.0078L16.877 38.9922L9.59082 38.0918H9.58984C8.66114 37.9767 7.92534 37.2358 7.83594 36.2949L6.94043 26.8535L2.68652 26.1357V26.1338C1.50942 25.953 1.02998 24.8944 1.00195 24.083V23.9199L1.73535 7.3623L1.73926 7.28418L1.75488 7.20703C1.86162 6.68157 2.17562 6.22548 2.61816 5.93457L2.61914 5.93359L5.32324 4.16309L5.37402 4.12988L5.42773 4.10352L10.8574 1.41992L11.0703 1.32227C11.572 1.1095 12.1125 1.0001 12.6582 1H21.3418Z" fill="#D8E2ED" stroke="#D8E2ED" stroke-width="2"/><mask id="mask0_399_81" maskUnits="userSpaceOnUse" x="1" y="5" width="7" height="21" style="mask-type: alpha;"><path fill-rule="evenodd" clip-rule="evenodd" d="M5.86949 5L3.16619 6.77024C2.96435 6.90286 2.81814 7.10184 2.75264 7.3303C2.73831 7.38029 2.73294 7.43226 2.73064 7.48421L2.00044 23.9634C1.9805 24.5 2.27523 25.0683 2.85184 25.1495L7.88949 26L5.86949 5Z" fill="#243D7C"/></mask><g mask="url(#mask0_399_81)"><path fill-rule="evenodd" clip-rule="evenodd" d="M5.86949 5L3.16619 6.77024C2.96435 6.90286 2.81814 7.10184 2.75264 7.3303C2.73831 7.38029 2.73294 7.43226 2.73064 7.48421L2.00044 23.9634C1.9805 24.5 2.27523 25.0683 2.85184 25.1495L7.88949 26L5.86949 5Z" fill="#0038A8"/><path fill-rule="evenodd" clip-rule="evenodd" d="M1.99948 19L8.99948 20V27L1.99948 26V19Z" fill="#0038A8"/><path fill-rule="evenodd" clip-rule="evenodd" d="M1.99948 17L8.99948 18V20L1.99948 19V17Z" fill="#FFFFFF"/><path fill-rule="evenodd" clip-rule="evenodd" d="M1.99948 13L8.99948 14V16L1.99948 15V13Z" fill="#FFFFFF"/><path fill-rule="evenodd" clip-rule="evenodd" d="M1.99948 15L8.99948 16V18L1.99948 17V15Z" fill="#CE1126"/></g><mask id="mask1_399_81" maskUnits="userSpaceOnUse" x="26" y="5" width="6" height="21" style="mask-type: alpha;"><path fill-rule="evenodd" clip-rule="evenodd" d="M28.1295 5L30.8326 6.77024C31.0345 6.90286 31.1807 7.10185 31.2462 7.3303C31.2605 7.38029 31.2659 7.43226 31.2682 7.48421L31.9983 23.9634C32.0205 24.5 31.7236 25.0683 31.147 25.1495L26.1095 26L28.1295 5Z" fill="#243D7C"/></mask><g mask="url(#mask1_399_81)"><path fill-rule="evenodd" clip-rule="evenodd" d="M28.1295 5L30.8326 6.77024C31.0345 6.90286 31.1807 7.10185 31.2462 7.3303C31.2605 7.38029 31.2659 7.43226 31.2682 7.48421L31.9983 23.9634C32.0205 24.5 31.7236 25.0683 31.147 25.1495L26.1095 26L28.1295 5Z" fill="#0038A8"/><path fill-rule="evenodd" clip-rule="evenodd" d="M32.9995 19L25.9995 20V27L32.9995 26V19Z" fill="#0038A8"/><path fill-rule="evenodd" clip-rule="evenodd" d="M32.9995 17L25.9995 18V20L32.9995 19V17Z" fill="#FFFFFF"/><path fill-rule="evenodd" clip-rule="evenodd" d="M32.9995 13L25.9995 14V16L32.9995 15V13Z" fill="#FFFFFF"/><path fill-rule="evenodd" clip-rule="evenodd" d="M32.9995 15L25.9995 16V18L32.9995 17V15Z" fill="#CE1126"/></g><path d="M9.71018 37.0996L16.9985 38L24.2868 37.0996C24.7577 37.0414 25.1244 36.6676 25.1687 36.2006L28.1282 5L22.6984 2.31672C22.2769 2.10844 21.8121 2 21.3409 2H12.6561C12.1848 2 11.7201 2.10844 11.2986 2.31672L5.86875 5L8.82831 36.2006C8.8726 36.6676 9.2393 37.0414 9.71018 37.0996Z" fill="#0038A8"/><mask id="mask2_399_81" maskUnits="userSpaceOnUse" x="5" y="2" width="24" height="36" style="mask-type: alpha;"><path d="M21.3404 2C21.8117 2 22.2773 2.10812 22.6988 2.31641L28.1285 5L25.1686 36.2002C25.1243 36.6672 24.7576 37.0414 24.2867 37.0996L16.9986 38L9.71054 37.0996C9.23966 37.0414 8.873 36.6672 8.82871 36.2002L5.86875 5L11.2984 2.31641C11.7199 2.10815 12.1847 2.00003 12.6559 2H21.3404Z" fill="white"/></mask><g mask="url(#mask2_399_81)"><rect x="7.99949" y="34" width="18" height="4" fill="#CE1126"/><rect x="7.99949" y="32" width="18" height="2" fill="#FFFFFF"/><g transform="translate(17 18) rotate(1) scale(1) translate(-9 -9)"><g transform="scale(0.036) translate(0 0)">
<path xmlns="http://www.w3.org/2000/svg" fill-rule="evenodd" clip-rule="evenodd" d="M67.461 100.327H74.375L72.635 108.091H65.721L67.461 100.327ZM50.853 158.603L23 158.602L27.723 135.858L34.032 135.86L42.057 100.444H35.813L40.047 83.015L47.557 77.5H91.632L102.403 87.711L95.481 120.477L84.079 128.241L87.174 135.855L94.612 135.856L90.865 153.135L82.882 158.6L74.17 158.602L62.957 130.794L61.192 130.821L60.066 135.858H62.611L58.803 153.299L50.853 158.603Z" fill="white"/>
<path xmlns="http://www.w3.org/2000/svg" fill-rule="evenodd" clip-rule="evenodd" d="M123.277 150.363L119.632 157.245H123.835L123.277 150.363ZM77.3965 195.606L105.357 195.986L113.067 190.502L116.705 174.648H118.551L114.18 195.47L142.06 195.552L149.444 190.286L153.788 172.858H147.816L143.256 114.113L119.258 114.385L88.3655 172.751L82.6105 172.859L77.3965 195.606Z" fill="white"/>
<path xmlns="http://www.w3.org/2000/svg" fill-rule="evenodd" clip-rule="evenodd" d="M63.7705 94.79H80.5475L76.3255 113.63H59.5485L63.7705 94.79ZM30.1875 153.096H55.7055L57.7435 141.477H54.0245L57.1175 125.322L63.8135 125.323L75.2515 153.097L85.7055 153.095L87.6095 141.477L82.9615 141.48L76.8935 125.321L79.2695 125.323L90.5085 117.669L96.4265 90.957L88.4995 82.958L45.2815 82.957L42.7835 94.757H48.7705L38.5285 141.478L32.2505 141.477L30.1875 153.096Z" fill="#CE1126"/>
<path xmlns="http://www.w3.org/2000/svg" fill-rule="evenodd" clip-rule="evenodd" d="M125.394 141.132L115.451 159.904H126.915L125.394 141.132ZM84.0293 190.217H107.511L110.388 178.728L105.053 178.727L110.467 169.275H127.515L128.248 178.727L123.182 178.728L120.543 190.218L143.857 190.217L146.718 178.727H142.608L137.83 119.969L121.902 119.97L90.6493 178.727H86.7943L84.0293 190.217Z" fill="#CE1126"/>
<path xmlns="http://www.w3.org/2000/svg" fill-rule="evenodd" clip-rule="evenodd" d="M382.21 318.448H389.124L387.384 326.212H380.47L382.21 318.448ZM365.601 376.725L337.748 376.723L342.471 353.979L348.78 353.981L356.805 318.565H350.561L354.795 301.136L362.305 295.621H406.38L417.151 305.832L410.229 338.598L398.827 346.362L401.922 353.976L409.36 353.977L405.613 371.256L397.63 376.721L388.918 376.723L377.705 348.915L375.94 348.942L374.813 353.979H377.358L373.55 371.42L365.601 376.725Z" fill="white"/>
<path xmlns="http://www.w3.org/2000/svg" fill-rule="evenodd" clip-rule="evenodd" d="M378.521 312.91H395.298L391.076 331.75H374.299L378.521 312.91ZM344.938 371.217H370.457L372.493 359.598H368.775L371.868 343.443L378.564 343.444L390.002 371.218L400.456 371.216L402.359 359.598L397.712 359.601L391.644 343.441L394.02 343.443L405.259 335.789L411.177 309.077L403.25 301.078H360.032L357.534 312.878L363.521 312.877L353.279 359.599L347 359.598L344.938 371.217Z" fill="#CE1126"/>
<path xmlns="http://www.w3.org/2000/svg" fill-rule="evenodd" clip-rule="evenodd" d="M145.217 245.513H172.179L180.324 239.893L183.554 224.952L181.898 224.962L182.719 222.037L189.953 245.421L202.04 245.513L210.184 239.894L222.075 187.18L228.101 187.182L233.374 164.441H199.368L194.457 184.379H196.719L195.555 188.581L188.639 164.441H169.575L162.187 169.665L157.985 187.182H164.158L156.539 222.303H150.24L145.217 245.513Z" fill="white"/>
<path xmlns="http://www.w3.org/2000/svg" fill-rule="evenodd" clip-rule="evenodd" d="M151.922 240.088H177.033L179.937 227.928H175.54L180.887 204.417L191.417 240.089L204.125 240.088L217.589 181.696H223.616L226.331 169.35L200.717 169.349L197.799 181.698L202.892 181.696L197.281 204.581L186.938 169.348L168.003 169.35L165.055 181.696L171.054 181.697L160.656 227.927L154.575 227.928L151.922 240.088Z" fill="#CE1126"/>
<path xmlns="http://www.w3.org/2000/svg" fill-rule="evenodd" clip-rule="evenodd" d="M238.425 264.037H241.503L247.617 237.064L252.975 237.065L254.984 228.636L246.514 228.637L238.425 264.037ZM285.656 206.105L241.027 205.996L225.662 216.312L209.971 287.274H265.676L271.268 261.675L277.295 257.657L281.857 237.063L274.283 237.064L279.902 233.361L285.656 206.105Z" fill="white"/>
<path xmlns="http://www.w3.org/2000/svg" fill-rule="evenodd" clip-rule="evenodd" d="M278.816 211.02L264.761 211.021L263.342 212.811L261.51 211.02H242.383L230.601 219.381L216.727 281.454L261.44 281.453L267.575 254.699H272.353L274.66 242.576L249.418 242.577L246.536 254.702L252.074 254.699L249.034 269.921L234.167 269.92L244.561 223.319L261.223 223.317L259.444 233.233H274.199L278.816 211.02Z" fill="#CE1126"/>
<path xmlns="http://www.w3.org/2000/svg" fill-rule="evenodd" clip-rule="evenodd" d="M275.388 306.569L270.346 329.227L330.232 329.226L338.268 324.106L344.296 296.372H324.963L321.966 309.338H306.886L308.841 300.216L314.704 300.217L322.903 294.787L326.148 280.296H313.673L315.381 271.171L330.696 271.17L328.386 281.226L341.145 281.227L349.398 275.893L355.407 248.258H288.725L283.381 271.175L289.264 271.17L281.31 306.569H275.388Z" fill="white"/>
<path xmlns="http://www.w3.org/2000/svg" fill-rule="evenodd" clip-rule="evenodd" d="M279.87 312.052L277.186 324.038L332.576 324.037L337.452 301.788L326.81 301.791L324.462 312.053L300.804 312.051L304.929 294.452H320.078L322.467 282.968H307.386L311.173 265.82L334.818 265.821L332.646 275.484L343.651 275.482L348.473 253.984L292.984 253.848L290.117 265.822L296.231 265.821L286.007 312.051L279.87 312.052Z" fill="#CE1126"/>
<path xmlns="http://www.w3.org/2000/svg" fill-rule="evenodd" clip-rule="evenodd" d="M432.072 399.496H438.649L440.135 391.785H433.559L432.072 399.496ZM439.135 368.914H445.225L446.176 363.934H440.086L439.135 368.914ZM408.074 391.69L401.396 422.504L445.845 422.503L461.283 412.267L468.667 380.07L461.65 372.686L471.246 366.945L477 340.938L432.479 340.94L417.168 351.824L410.436 381.306L420.317 391.568L408.074 391.69Z" fill="white"/>
<path xmlns="http://www.w3.org/2000/svg" fill-rule="evenodd" clip-rule="evenodd" d="M412.459 396.727L407.938 416.811L421.566 416.809L424.172 413.558L425.163 416.811H445.415L456.368 408.78L462.286 382.285L454.529 374.656L432.26 374.658L435.62 358.803L452.575 358.802L450.993 366.811L465.544 366.809L470.104 346.559H457.02L453.924 350.251L452.622 346.559H433.13L421.946 354.649L416.625 378.701L423.954 386.466L446.309 386.467L442.436 405.281L425.366 405.278L426.885 396.727H412.459Z" fill="#CE1126"/>
</g></g><path d="M23.9995 1C23.9995 3.8 21.1994 6.6 16.9995 8C12.7994 6.6 9.99948 3.8 9.99948 1C9.99948 -2.86599 13.1335 -6 16.9995 -6C20.8655 -6 23.9995 -2.86599 23.9995 1Z" fill="#CE1126"/><path d="M21.9995 1C21.9995 3 19.9995 5 16.9995 6C13.9995 5 11.9995 3 11.9995 1C11.9995 -1.76142 14.2381 -4 16.9995 -4C19.761 -4 21.9995 -1.76142 21.9995 1Z" fill="#001642"/></g><path opacity="0.15" d="M21.3413 2C21.8124 2.00006 22.2773 2.10818 22.6987 2.31641L28.1284 5H28.1382L30.8325 6.77051C31.0564 6.91762 31.2123 7.1462 31.2651 7.40625L31.9985 23.9639C32.0204 24.5003 31.7234 25.0682 31.1469 25.1494L26.1362 25.9951L25.1684 36.2002C25.1241 36.6672 24.7575 37.0414 24.2866 37.0996L16.9985 38V2H21.3413Z" fill="black"/></svg>