<?xml version="1.0" encoding="UTF-8"?>
<svg width="36" height="41" viewBox="0 0 36 41" fill="none" class="size-96" xmlns="http://www.w3.org/2000/svg"><path d="M22.3417 1C22.9661 1 23.583 1.14346 24.1425 1.41992L29.5722 4.10352L29.6278 4.13086L29.6796 4.16504L32.3661 5.93555C32.8098 6.22791 33.1215 6.68472 33.2274 7.20801L34.9589 15.7646C35.1892 16.9029 34.403 17.9795 33.2694 18.1396L28.827 18.7666L27.1649 36.2949C27.0756 37.2366 26.3395 37.9769 25.411 38.0918L18.122 38.9922L17.9999 39.0078L17.8768 38.9922L10.5888 38.0918C9.66014 37.977 8.92321 37.2367 8.83388 36.2949L7.17079 18.7656L2.73036 18.1396C1.59668 17.9796 0.810574 16.9029 1.04091 15.7646L2.77235 7.20801C2.87822 6.68484 3.18922 6.22792 3.63271 5.93555L6.32021 4.16504L6.37099 4.13086L6.42665 4.10352L11.8563 1.41992C12.4159 1.14342 13.0327 1.00003 13.6571 1H22.3417Z" fill="#D8E2ED" stroke="#D8E2ED" stroke-width="2"/><mask id="mask0_399_81" maskUnits="userSpaceOnUse" x="1" y="5" width="8" height="13" style="mask-type: alpha;"><path fill-rule="evenodd" clip-rule="evenodd" d="M6.86752 5L4.18085 6.77024C3.95757 6.91735 3.80257 7.1461 3.74994 7.40617L2.01831 15.9634C1.90439 16.5264 2.29235 17.0683 2.86736 17.1495L8.89111 18L6.86752 5Z" fill="#243D7C"/></mask><g mask="url(#mask0_399_81)"><path fill-rule="evenodd" clip-rule="evenodd" d="M6.86752 5L4.18085 6.77024C3.95757 6.91735 3.80257 7.1461 3.74994 7.40617L2.01831 15.9634C1.90439 16.5264 2.29235 17.0683 2.86736 17.1495L8.89111 18L6.86752 5Z" fill="#0033A0"/></g><mask id="mask1_399_81" maskUnits="userSpaceOnUse" x="27" y="5" width="7" height="13" style="mask-type: alpha;"><path fill-rule="evenodd" clip-rule="evenodd" d="M29.1272 5L31.8138 6.77024C32.0371 6.91735 32.1921 7.1461 32.2447 7.40617L33.9764 15.9634C34.0903 16.5264 33.7023 17.0683 33.1273 17.1495L27.1036 18L29.1272 5Z" fill="#243D7C"/></mask><g mask="url(#mask1_399_81)"><path fill-rule="evenodd" clip-rule="evenodd" d="M29.1272 5L31.8138 6.77024C32.0371 6.91735 32.1921 7.1461 32.2447 7.40617L33.9764 15.9634C34.0903 16.5264 33.7023 17.0683 33.1273 17.1495L27.1036 18L29.1272 5Z" fill="#0033A0"/></g><path d="M10.7091 37.0996L17.9974 38L25.2857 37.0996C25.7566 37.0414 26.1233 36.6676 26.1676 36.2006L29.1272 5L23.6973 2.31672C23.2758 2.10844 22.8111 2 22.3398 2H13.655C13.1838 2 12.719 2.10844 12.2975 2.31672L6.86769 5L9.82725 36.2006C9.87154 36.6676 10.2382 37.0414 10.7091 37.0996Z" fill="#0033A0"/><mask id="mask2_399_81" maskUnits="userSpaceOnUse" x="6" y="2" width="24" height="36" style="mask-type: alpha;"><path d="M22.3394 2C22.8106 2 23.2763 2.10812 23.6978 2.31641L29.1275 5L26.1675 36.2002C26.1232 36.6672 25.7565 37.0414 25.2857 37.0996L17.9976 38L10.7095 37.0996C10.2386 37.0414 9.87195 36.6672 9.82765 36.2002L6.86769 5L12.2974 2.31641C12.7188 2.10815 13.1836 2.00003 13.6548 2H22.3394Z" fill="white"/></mask><g mask="url(#mask2_399_81)"><rect x="6.99843" y="14" width="22" height="6" fill="#F7D117"/><circle cx="17.9985" cy="1" r="7" fill="#F7D117"/><circle cx="17.9986" cy="1" r="5" fill="#00123a"/></g><path opacity="0.15" d="M25.2857 37.0996L17.9974 38V2H22.3398C22.8111 2 23.2758 2.10844 23.6973 2.31672L29.1272 5L31.8138 6.77024C32.0371 6.91735 32.1921 7.1461 32.2447 7.40617L33.9764 15.9634C34.0903 16.5264 33.7023 17.0683 33.1273 17.1495L27.9048 17.8869L26.1676 36.2006C26.1233 36.6676 25.7566 37.0414 25.2857 37.0996Z" fill="black"/></svg>