<?xml version="1.0" encoding="UTF-8"?>
<svg width="36" height="41" viewBox="0 0 36 41" fill="none" class="size-96" xmlns="http://www.w3.org/2000/svg" xmlns:xlink="http://www.w3.org/1999/xlink"><path d="M22.3417 1C22.9661 1 23.583 1.14346 24.1425 1.41992L29.5722 4.10352L29.6278 4.13086L29.6796 4.16504L32.3661 5.93555C32.8098 6.22791 33.1215 6.68472 33.2274 7.20801L34.9589 15.7646C35.1892 16.9029 34.403 17.9795 33.2694 18.1396L28.827 18.7666L27.1649 36.2949C27.0756 37.2366 26.3395 37.9769 25.411 38.0918L18.122 38.9922L17.9999 39.0078L17.8768 38.9922L10.5888 38.0918C9.66014 37.977 8.92321 37.2367 8.83388 36.2949L7.17079 18.7656L2.73036 18.1396C1.59668 17.9796 0.810574 16.9029 1.04091 15.7646L2.77235 7.20801C2.87822 6.68484 3.18922 6.22792 3.63271 5.93555L6.32021 4.16504L6.37099 4.13086L6.42665 4.10352L11.8563 1.41992C12.4159 1.14342 13.0327 1.00003 13.6571 1H22.3417Z" fill="#D8E2ED" stroke="#D8E2ED" stroke-width="2"/><mask id="mask0_399_81" maskUnits="userSpaceOnUse" x="1" y="5" width="8" height="13" style="mask-type: alpha;"><path fill-rule="evenodd" clip-rule="evenodd" d="M6.86752 5L4.18085 6.77024C3.95757 6.91735 3.80257 7.1461 3.74994 7.40617L2.01831 15.9634C1.90439 16.5264 2.29235 17.0683 2.86736 17.1495L8.89111 18L6.86752 5Z" fill="#243D7C"/></mask><g mask="url(#mask0_399_81)"><path fill-rule="evenodd" clip-rule="evenodd" d="M6.86752 5L4.18085 6.77024C3.95757 6.91735 3.80257 7.1461 3.74994 7.40617L2.01831 15.9634C1.90439 16.5264 2.29235 17.0683 2.86736 17.1495L8.89111 18L6.86752 5Z" fill="#F7B5D0"/><path fill-rule="evenodd" clip-rule="evenodd" d="M1.80872 15L8.89128 16V20L1.80872 19V15Z" fill="#000000"/></g><mask id="mask1_399_81" maskUnits="userSpaceOnUse" x="27" y="5" width="7" height="13" style="mask-type: alpha;"><path fill-rule="evenodd" clip-rule="evenodd" d="M29.1272 5L31.8138 6.77024C32.0371 6.91735 32.1921 7.1461 32.2447 7.40617L33.9764 15.9634C34.0903 16.5264 33.7023 17.0683 33.1273 17.1495L27.1036 18L29.1272 5Z" fill="#243D7C"/></mask><g mask="url(#mask1_399_81)"><path fill-rule="evenodd" clip-rule="evenodd" d="M29.1272 5L31.8138 6.77024C32.0371 6.91735 32.1921 7.1461 32.2447 7.40617L33.9764 15.9634C34.0903 16.5264 33.7023 17.0683 33.1273 17.1495L27.1036 18L29.1272 5Z" fill="#F7B5D0"/><path fill-rule="evenodd" clip-rule="evenodd" d="M34.1863 15L27.1037 16V20L34.1863 19V15Z" fill="#000000"/></g><path d="M10.7091 37.0996L17.9974 38L25.2857 37.0996C25.7566 37.0414 26.1233 36.6676 26.1676 36.2006L29.1272 5L23.6973 2.31672C23.2758 2.10844 22.8111 2 22.3398 2H13.655C13.1838 2 12.719 2.10844 12.2975 2.31672L6.86769 5L9.82725 36.2006C9.87154 36.6676 10.2382 37.0414 10.7091 37.0996Z" fill="#F7B5D0"/><mask id="mask2_399_81" maskUnits="userSpaceOnUse" x="6" y="2" width="24" height="36" style="mask-type: alpha;"><path d="M22.3394 2C22.8106 2 23.2763 2.10812 23.6978 2.31641L29.1275 5L26.1675 36.2002C26.1232 36.6672 25.7565 37.0414 25.2857 37.0996L17.9976 38L10.7095 37.0996C10.2386 37.0414 9.87195 36.6672 9.82765 36.2002L6.86769 5L12.2974 2.31641C12.7188 2.10815 13.1836 2.00003 13.6548 2H22.3394Z" fill="white"/></mask><g mask="url(#mask2_399_81)"><rect x="14.9964" y="2" width="6" height="37" fill="#F5C4D9"/><rect x="4.99638" y="2" width="6" height="37" fill="#F5C4D9"/><rect x="24.9964" y="2" width="6" height="37" fill="#F5C4D9"/><path d="M13.4 2.00156C14.2 3.00156 15.8 4.10156 18 4.10156C20.2 4.10156 21.8 3.00156 22.6 2.00156V2L13.4 2.00156Z" fill="#000000" opacity="0.9"/><g><path id="«r188»" d="M 10 13.95 Q 18 8.05 26 13.95" fill="none" stroke="none"/><path d="M1.456-2.768Q1.472-2.800 1.516-2.800L1.516-2.800L1.980-2.800Q2-2.800 2.014-2.786Q2.028-2.772 2.028-2.752L2.028-2.752L2.028-0.048Q2.028-0.028 2.014-0.014Q2 0 1.980 0L1.980 0L1.512 0Q1.492 0 1.478-0.014Q1.464-0.028 1.464-0.048L1.464-0.048L1.464-1.844Q1.464-1.860 1.456-1.860Q1.448-1.860 1.440-1.848L1.440-1.848L1.128-1.296Q1.108-1.264 1.096-1.264L1.096-1.264Q1.084-1.264 1.064-1.296L1.064-1.296L0.752-1.848Q0.744-1.860 0.736-1.860Q0.728-1.860 0.728-1.844L0.728-1.844L0.728-0.048Q0.728-0.028 0.714-0.014Q0.700 0 0.680 0L0.680 0L0.212 0Q0.192 0 0.178-0.014Q0.164-0.028 0.164-0.048L0.164-0.048L0.164-2.752Q0.164-2.772 0.178-2.786Q0.192-2.800 0.212-2.800L0.212-2.800L0.672-2.800Q0.712-2.800 0.732-2.768L0.732-2.768L1.088-2.132Q1.100-2.116 1.112-2.132L1.112-2.132L1.456-2.768Z" transform="translate(14.569 11.542) rotate(-17.550) translate(-1.221 0)" fill="#000000" paint-order="stroke fill" /><path d="M1.644-2.364Q1.644-2.344 1.630-2.330Q1.616-2.316 1.596-2.316L1.596-2.316L0.760-2.316Q0.740-2.316 0.740-2.296L0.740-2.296L0.740-1.664Q0.740-1.644 0.760-1.644L0.760-1.644L1.240-1.644Q1.260-1.644 1.274-1.630Q1.288-1.616 1.288-1.596L1.288-1.596L1.288-1.208Q1.288-1.188 1.274-1.174Q1.260-1.160 1.240-1.160L1.240-1.160L0.760-1.160Q0.740-1.160 0.740-1.140L0.740-1.140L0.740-0.504Q0.740-0.484 0.760-0.484L0.760-0.484L1.596-0.484Q1.616-0.484 1.630-0.470Q1.644-0.456 1.644-0.436L1.644-0.436L1.644-0.048Q1.644-0.028 1.630-0.014Q1.616 0 1.596 0L1.596 0L0.224 0Q0.204 0 0.190-0.014Q0.176-0.028 0.176-0.048L0.176-0.048L0.176-2.752Q0.176-2.772 0.190-2.786Q0.204-2.800 0.224-2.800L0.224-2.800L1.596-2.800Q1.616-2.800 1.630-2.786Q1.644-2.772 1.644-2.752L1.644-2.752L1.644-2.364Z" transform="translate(16.738 11.073) rotate(-6.637) translate(-1.001 0)" fill="#000000" paint-order="stroke fill" /><path d="M0.896 0.032Q0.664 0.032 0.488-0.060Q0.312-0.152 0.216-0.318Q0.120-0.484 0.120-0.700L0.120-0.700L0.120-0.816Q0.120-0.836 0.134-0.850Q0.148-0.864 0.168-0.864L0.168-0.864L0.628-0.864Q0.648-0.864 0.662-0.850Q0.676-0.836 0.676-0.816L0.676-0.816L0.676-0.728Q0.676-0.604 0.740-0.528Q0.804-0.452 0.900-0.452L0.900-0.452Q0.996-0.452 1.060-0.524Q1.124-0.596 1.124-0.712L1.124-0.712Q1.124-0.832 1.044-0.918Q0.964-1.004 0.732-1.172L0.732-1.172Q0.532-1.316 0.408-1.428Q0.284-1.540 0.196-1.704Q0.108-1.868 0.108-2.084L0.108-2.084Q0.108-2.424 0.320-2.628Q0.532-2.832 0.880-2.832L0.880-2.832Q1.232-2.832 1.446-2.620Q1.660-2.408 1.660-2.064L1.660-2.064L1.660-1.968Q1.660-1.948 1.646-1.934Q1.632-1.920 1.612-1.920L1.612-1.920L1.152-1.920Q1.132-1.920 1.118-1.934Q1.104-1.948 1.104-1.968L1.104-1.968L1.104-2.076Q1.104-2.200 1.042-2.274Q0.980-2.348 0.880-2.348L0.880-2.348Q0.784-2.348 0.724-2.278Q0.664-2.208 0.664-2.084L0.664-2.084Q0.664-1.964 0.740-1.872Q0.816-1.780 1.040-1.616L1.040-1.616Q1.288-1.432 1.414-1.318Q1.540-1.204 1.610-1.066Q1.680-0.928 1.680-0.736L1.680-0.736Q1.680-0.384 1.464-0.176Q1.248 0.032 0.896 0.032L0.896 0.032Z" transform="translate(18.748 11.026) rotate(3.947) translate(-1.013 0)" fill="#000000" paint-order="stroke fill" /><path d="M0.896 0.032Q0.664 0.032 0.488-0.060Q0.312-0.152 0.216-0.318Q0.120-0.484 0.120-0.700L0.120-0.700L0.120-0.816Q0.120-0.836 0.134-0.850Q0.148-0.864 0.168-0.864L0.168-0.864L0.628-0.864Q0.648-0.864 0.662-0.850Q0.676-0.836 0.676-0.816L0.676-0.816L0.676-0.728Q0.676-0.604 0.740-0.528Q0.804-0.452 0.900-0.452L0.900-0.452Q0.996-0.452 1.060-0.524Q1.124-0.596 1.124-0.712L1.124-0.712Q1.124-0.832 1.044-0.918Q0.964-1.004 0.732-1.172L0.732-1.172Q0.532-1.316 0.408-1.428Q0.284-1.540 0.196-1.704Q0.108-1.868 0.108-2.084L0.108-2.084Q0.108-2.424 0.320-2.628Q0.532-2.832 0.880-2.832L0.880-2.832Q1.232-2.832 1.446-2.620Q1.660-2.408 1.660-2.064L1.660-2.064L1.660-1.968Q1.660-1.948 1.646-1.934Q1.632-1.920 1.612-1.920L1.612-1.920L1.152-1.920Q1.132-1.920 1.118-1.934Q1.104-1.948 1.104-1.968L1.104-1.968L1.104-2.076Q1.104-2.200 1.042-2.274Q0.980-2.348 0.880-2.348L0.880-2.348Q0.784-2.348 0.724-2.278Q0.664-2.208 0.664-2.084L0.664-2.084Q0.664-1.964 0.740-1.872Q0.816-1.780 1.040-1.616L1.040-1.616Q1.288-1.432 1.414-1.318Q1.540-1.204 1.610-1.066Q1.680-0.928 1.680-0.736L1.680-0.736Q1.680-0.384 1.464-0.176Q1.248 0.032 0.896 0.032L0.896 0.032Z" transform="translate(20.746 11.348) rotate(14.206) translate(-1.013 0)" fill="#000000" paint-order="stroke fill" /><path d="M0.224 0Q0.204 0 0.190-0.014Q0.176-0.028 0.176-0.048L0.176-0.048L0.176-2.752Q0.176-2.772 0.190-2.786Q0.204-2.800 0.224-2.800L0.224-2.800L0.692-2.800Q0.712-2.800 0.726-2.786Q0.740-2.772 0.740-2.752L0.740-2.752L0.740-0.048Q0.740-0.028 0.726-0.014Q0.712 0 0.692 0L0.692 0L0.224 0Z" transform="translate(22.149 11.793) rotate(20.931) translate(-0.460 0)" fill="#000000" paint-order="stroke fill" /><path d="M1.504-11.152Q1.632-11.200 1.744-11.200L1.744-11.200L4.080-11.200Q4.160-11.200 4.216-11.144Q4.272-11.088 4.272-11.008L4.272-11.008L4.272-0.192Q4.272-0.112 4.216-0.056Q4.160 0 4.080 0L4.080 0L1.808 0Q1.728 0 1.672-0.056Q1.616-0.112 1.616-0.192L1.616-0.192L1.616-8.624Q1.616-8.704 1.536-8.704L1.536-8.704L0.352-8.640Q0.160-8.640 0.160-8.816L0.160-8.816L0.128-10.512Q0.128-10.672 0.288-10.720L0.288-10.720L1.504-11.152Z" transform="translate(13.328 25.480)" fill="#000000" paint-order="stroke fill" /><path d="M1.504-11.152Q1.632-11.200 1.744-11.200L1.744-11.200L4.080-11.200Q4.160-11.200 4.216-11.144Q4.272-11.088 4.272-11.008L4.272-11.008L4.272-0.192Q4.272-0.112 4.216-0.056Q4.160 0 4.080 0L4.080 0L1.808 0Q1.728 0 1.672-0.056Q1.616-0.112 1.616-0.192L1.616-0.192L1.616-8.624Q1.616-8.704 1.536-8.704L1.536-8.704L0.352-8.640Q0.160-8.640 0.160-8.816L0.160-8.816L0.128-10.512Q0.128-10.672 0.288-10.720L0.288-10.720L1.504-11.152Z" transform="translate(17.968 25.480)" fill="#000000" paint-order="stroke fill" /></g></g> <path opacity="0.15" d="M25.2857 37.0996L17.9974 38V2H22.3398C22.8111 2 23.2758 2.10844 23.6973 2.31672L29.1272 5L31.8138 6.77024C32.0371 6.91735 32.1921 7.1461 32.2447 7.40617L33.9764 15.9634C34.0903 16.5264 33.7023 17.0683 33.1273 17.1495L27.9048 17.8869L26.1676 36.2006C26.1233 36.6676 25.7566 37.0414 25.2857 37.0996Z" fill="black"/></svg>