<?xml version="1.0" encoding="UTF-8"?>
<svg width="36" height="41" viewBox="0 0 36 41" fill="none" class="size-96" xmlns="http://www.w3.org/2000/svg" xmlns:xlink="http://www.w3.org/1999/xlink"><path d="M22.3417 1C22.9661 1 23.583 1.14346 24.1425 1.41992L29.5722 4.10352L29.6278 4.13086L29.6796 4.16504L32.3661 5.93555C32.8098 6.22791 33.1215 6.68472 33.2274 7.20801L34.9589 15.7646C35.1892 16.9029 34.403 17.9795 33.2694 18.1396L28.827 18.7666L27.1649 36.2949C27.0756 37.2366 26.3395 37.9769 25.411 38.0918L18.122 38.9922L17.9999 39.0078L17.8768 38.9922L10.5888 38.0918C9.66014 37.977 8.92321 37.2367 8.83388 36.2949L7.17079 18.7656L2.73036 18.1396C1.59668 17.9796 0.810574 16.9029 1.04091 15.7646L2.77235 7.20801C2.87822 6.68484 3.18922 6.22792 3.63271 5.93555L6.32021 4.16504L6.37099 4.13086L6.42665 4.10352L11.8563 1.41992C12.4159 1.14342 13.0327 1.00003 13.6571 1H22.3417Z" fill="#D8E2ED" stroke="#D8E2ED" stroke-width="2"/><mask id="mask0_399_81" maskUnits="userSpaceOnUse" x="1" y="5" width="8" height="13" style="mask-type: alpha;"><path fill-rule="evenodd" clip-rule="evenodd" d="M6.86752 5L4.18085 6.77024C3.95757 6.91735 3.80257 7.1461 3.74994 7.40617L2.01831 15.9634C1.90439 16.5264 2.29235 17.0683 2.86736 17.1495L8.89111 18L6.86752 5Z" fill="#243D7C"/></mask><g mask="url(#mask0_399_81)"><path fill-rule="evenodd" clip-rule="evenodd" d="M6.86752 5L4.18085 6.77024C3.95757 6.91735 3.80257 7.1461 3.74994 7.40617L2.01831 15.9634C1.90439 16.5264 2.29235 17.0683 2.86736 17.1495L8.89111 18L6.86752 5Z" fill="#2E2E2E"/><path fill-rule="evenodd" clip-rule="evenodd" d="M1.80872 15L8.89128 16V20L1.80872 19V15Z" fill="#EC4899"/></g><mask id="mask1_399_81" maskUnits="userSpaceOnUse" x="27" y="5" width="7" height="13" style="mask-type: alpha;"><path fill-rule="evenodd" clip-rule="evenodd" d="M29.1272 5L31.8138 6.77024C32.0371 6.91735 32.1921 7.1461 32.2447 7.40617L33.9764 15.9634C34.0903 16.5264 33.7023 17.0683 33.1273 17.1495L27.1036 18L29.1272 5Z" fill="#243D7C"/></mask><g mask="url(#mask1_399_81)"><path fill-rule="evenodd" clip-rule="evenodd" d="M29.1272 5L31.8138 6.77024C32.0371 6.91735 32.1921 7.1461 32.2447 7.40617L33.9764 15.9634C34.0903 16.5264 33.7023 17.0683 33.1273 17.1495L27.1036 18L29.1272 5Z" fill="#2E2E2E"/><path fill-rule="evenodd" clip-rule="evenodd" d="M34.1863 15L27.1037 16V20L34.1863 19V15Z" fill="#EC4899"/></g><path d="M10.7091 37.0996L17.9974 38L25.2857 37.0996C25.7566 37.0414 26.1233 36.6676 26.1676 36.2006L29.1272 5L23.6973 2.31672C23.2758 2.10844 22.8111 2 22.3398 2H13.655C13.1838 2 12.719 2.10844 12.2975 2.31672L6.86769 5L9.82725 36.2006C9.87154 36.6676 10.2382 37.0414 10.7091 37.0996Z" fill="#2E2E2E"/><mask id="mask2_399_81" maskUnits="userSpaceOnUse" x="6" y="2" width="24" height="36" style="mask-type: alpha;"><path d="M22.3394 2C22.8106 2 23.2763 2.10812 23.6978 2.31641L29.1275 5L26.1675 36.2002C26.1232 36.6672 25.7565 37.0414 25.2857 37.0996L17.9976 38L10.7095 37.0996C10.2386 37.0414 9.87195 36.6672 9.82765 36.2002L6.86769 5L12.2974 2.31641C12.7188 2.10815 13.1836 2.00003 13.6548 2H22.3394Z" fill="white"/></mask><g mask="url(#mask2_399_81)"><g transform="translate(18 16.5) rotate(0) scale(0.67) translate(-10 -4.615384615384615)"><g transform="scale(0.2564102564102564) translate(0 0)">
<path xmlns="http://www.w3.org/2000/svg" d="M27.0321 35.4369H0.665039L6.76208 0.563965H33.1291L27.0321 35.4369Z" fill="#0B0B0B"/>
<path xmlns="http://www.w3.org/2000/svg" d="M9.90422 12.3039L9.34479 12.6405L8.79867 12.5017C8.77435 12.1762 9.75654 11.8407 9.9048 12.3039H9.90422ZM20.5943 25.0349C20.5335 25.0267 20.4519 25.0647 20.4136 25.1131C20.2822 25.2805 20.1577 25.4555 20.0395 25.6323C19.9949 25.6988 19.9173 25.735 19.838 25.7245C19.0828 25.627 18.3444 25.9403 17.6182 26.1112C17.4948 26.1351 17.3078 26.1684 17.2597 26.008C17.2313 25.8744 17.2441 25.739 17.2551 25.6037C17.2643 25.4894 17.1804 25.3884 17.0669 25.3779C16.9377 25.3663 16.8097 25.3913 16.7472 25.5325C16.5149 26.0103 16.4663 26.5587 16.4843 27.0825C16.4924 27.4069 16.8775 27.5043 17.1323 27.4687C18.1823 27.3124 19.2212 27.0575 20.266 26.8655C20.3395 26.8521 20.3997 26.799 20.4217 26.7273C20.5578 26.2816 20.6603 25.8225 20.808 25.3803C20.8966 25.2163 20.7466 25.0553 20.5943 25.0343V25.0349ZM17.712 22.6442C17.9118 22.7667 18.2002 22.6133 18.2379 22.3957C18.3276 22.0002 18.3797 21.5988 18.484 21.2056C18.4869 21.1946 18.4932 21.1846 18.5025 21.1771C18.5025 21.1771 20.6603 20.2547 21.079 20.5418C21.1051 20.5598 21.1335 20.5733 21.1277 20.603C21.064 20.9256 20.9991 21.2517 20.9348 21.5749C20.9279 21.6111 20.9424 21.6473 20.9719 21.6688C21.0738 21.7412 21.3072 21.8789 21.379 21.6758C21.5852 21.0907 21.8632 20.5365 22.0833 19.9613C22.0919 19.9386 22.0827 19.9123 22.0607 19.8989C21.4937 19.5634 20.782 19.6819 20.1669 19.8516C19.3643 20.1025 18.5819 20.4665 17.9025 20.9542C17.8765 20.9729 17.8574 21.0003 17.8481 21.0306C17.7415 21.3847 17.6454 21.7447 17.5887 22.107C17.5887 22.111 17.5875 22.1151 17.5875 22.1192C17.5742 22.2983 17.5481 22.5241 17.7126 22.6448L17.712 22.6442ZM6.29395 0L0 36H27.5027L33.7972 0H6.29395ZM17.4861 1.12649C18.7498 2.29441 19.2687 4.17929 16.8422 7.1545C15.4152 6.78464 13.8915 6.23218 10.9658 6.52795C11.5072 3.79601 10.4237 2.13456 8.98399 1.12649H17.4861ZM9.88569 12.7053C9.68937 12.7887 9.50347 12.9264 9.28108 12.9264C8.21838 12.9101 6.77868 11.5712 6.77868 11.5712C7.07287 11.4907 7.32074 11.5671 7.53502 11.727C7.71454 11.8746 7.92013 12.0018 8.10488 11.8956C8.73497 11.5333 9.33899 11.1144 9.99978 10.8099C10.6507 10.5299 11.4742 10.5211 12.0186 11.0234C12.4813 11.4895 13.0182 11.86 13.5863 12.1738C14.0421 12.4253 14.5233 12.6499 15.0393 12.7403C15.0393 12.7403 14.8146 13.3138 15.1528 13.8137C15.07 13.8143 14.9733 13.8067 14.9264 13.725C14.704 13.4036 14.6739 13.3237 14.4967 13.1609C14.0687 12.7321 13.4716 12.5484 12.8925 12.4358C11.8982 12.2462 10.8326 12.2771 9.88569 12.7053ZM11.9219 16.6349C11.2148 16.9715 10.5013 17.3116 9.86774 17.7853C9.22954 18.252 8.72512 18.9106 8.42629 19.662C8.01627 20.6812 7.89813 21.7808 7.83732 22.8688C7.83384 22.9318 7.74871 22.9476 7.72323 22.8898C7.00975 21.2797 6.6559 19.5057 6.59104 17.7305C6.56672 16.8823 6.60494 16.02 6.79779 15.1893C6.80821 15.1438 6.86381 15.1281 6.8974 15.1601C7.43309 15.6735 8.09793 16.0177 8.79288 16.2312C9.79129 16.5422 10.8511 16.6069 11.8912 16.5217C11.9578 16.5159 11.9815 16.6063 11.9219 16.6349ZM7.23271 1.12649H7.77246C8.93361 1.88371 9.85847 2.95362 10.25 4.2808C10.9351 7.01974 8.95387 7.8528 5.86713 8.93554L7.23271 1.12649ZM1.33257 34.8735L4.33824 17.6826C4.98744 21.2593 6.66517 23.0993 7.67516 25.9135C8.23576 27.4757 8.18769 29.2515 7.94851 30.392C7.64679 31.8271 6.81748 33.1502 5.10037 34.8735H1.33257ZM13.0338 34.8735H6.47695C7.12847 34.2032 7.72497 33.4139 8.09561 32.5289C8.86006 30.703 8.63593 29.3443 8.87453 27.0598C9.13398 24.5396 10.1121 23.1074 11.0642 21.2371C11.5072 20.3714 12.0175 19.5337 12.6348 18.7887C12.9979 18.3564 13.3981 17.9516 13.8631 17.6418L14.1874 17.4522C14.1874 17.4522 14.4984 17.2842 14.5697 17.5327C14.6652 17.8652 14.2645 18.0449 14.016 18.2176C13.1607 18.7409 12.4084 19.4608 11.8657 20.3341C11.2889 21.2529 10.9669 22.3339 10.9328 23.426C10.88 25.0991 11.4511 26.7255 12.2815 28.1198C12.4089 28.4196 14.3351 31.7851 13.0338 34.8735ZM18.8546 34.8735H13.8741C14.228 34.17 14.5083 33.4267 14.6936 32.6561C14.9397 31.6498 15.0689 30.5484 14.7058 29.5648C15.8084 29.8682 16.9974 29.9848 18.1116 29.6296C18.8112 29.426 19.2554 29.3192 20.0279 28.5947C21.035 27.4279 19.9775 27.4291 19.9775 27.4291C19.4998 27.4127 19.0353 27.5767 18.5662 27.656C17.9593 27.7779 17.3414 27.8771 16.724 27.887C16.1599 27.8917 15.5744 27.8404 15.0677 27.5586C14.4452 27.2039 13.9187 26.6894 13.4583 26.1246C10.9096 22.6944 13.6245 19.5664 13.6245 19.5664C13.8579 19.2817 14.1625 19.0571 14.4932 18.9153C14.5784 18.8739 14.6988 18.843 14.7579 18.9124C14.799 18.9871 14.5888 19.1574 14.4735 19.2502C14.3386 19.3651 14.3334 19.5629 14.4822 19.627C14.6415 19.6877 14.8222 19.69 14.982 19.7507C15.3191 19.8814 15.6347 20.0751 15.93 20.2962C15.9306 20.2962 15.9318 20.2973 15.9329 20.2979C16.2225 20.4922 16.3661 20.7267 16.7095 20.7699C17.0171 20.8113 17.5545 20.6088 17.7838 20.3755C18.0242 20.1334 18.3294 19.9922 18.6293 19.8505C19.2334 19.5716 19.8588 19.3493 20.4739 19.0938C20.7495 18.9731 21.0339 18.8593 21.2794 18.6761C21.4097 18.829 21.6599 19.3009 21.9014 19.3768C22.2338 19.4544 22.4498 19.3453 22.7909 19.4042C23.2351 19.8306 23.4882 20.4245 23.6857 21.0131C24.0135 22.0737 24.1114 23.2066 24.072 24.3244C23.9868 26.7407 23.2363 29.1174 22.0398 31.1918C22.0398 31.1918 20.8717 33.0965 18.8546 34.8735ZM25.9981 27.95C24.7258 30.2094 22.0867 32.9863 21.2406 33.6963C28.4206 24.5956 23.3023 18.1196 23.3023 18.1196C23.578 17.2101 23.2566 16.1904 22.9299 15.9454C22.9149 15.9343 22.8946 15.9343 22.879 15.9436C22.2483 16.3228 22.0398 17.2194 21.712 17.3169C21.7068 17.318 21.701 17.3186 21.6958 17.3192C21.4978 17.3233 21.3611 17.1459 21.2377 17.0083C20.9777 16.6676 20.614 16.4436 20.2677 16.2114C19.765 15.894 19.245 15.6058 18.6925 15.4046C18.5598 15.3521 18.4052 15.3106 18.3207 15.1835C18.316 15.1759 18.3131 15.1666 18.3126 15.1578C18.3027 14.956 18.5703 14.9647 18.7069 14.949H18.7127C19.6225 14.9536 20.4148 15.5399 21.32 15.5702C21.6779 15.5743 22.0462 15.5212 22.3647 15.3322C22.5431 15.2249 22.6983 15.0417 22.6977 14.8177C22.6821 14.421 22.4834 14.0156 22.1307 13.8481C21.8753 13.7105 21.5597 13.8236 21.3107 13.6819C21.1734 13.6054 21.1422 13.4298 21.1601 13.2805C21.1833 13.0495 21.2499 12.7893 21.1161 12.5828C20.9406 12.28 20.5822 12.2263 20.2862 12.1301C19.6463 11.9008 19.0498 11.5596 18.4846 11.1699C18.2795 11.0532 17.9958 10.7883 17.9292 10.5456C17.8585 10.2639 17.9031 10.0218 18.001 9.74059C18.1481 9.51249 18.4759 9.64259 18.5639 9.86194C18.5639 9.86194 18.9525 11.0199 19.5154 11.4265C20.1745 11.9008 20.131 10.7708 20.131 10.7708C20.0997 8.8387 17.5209 7.49577 17.5209 7.49577C17.9662 6.33952 19.1471 5.49597 20.358 5.26903C21.569 5.04152 22.7701 5.17803 24.1166 5.63014C22.8865 5.80807 21.635 6.20593 20.7756 7.10958C21.7329 6.82897 22.8668 7.03607 23.7784 7.44327C24.6638 7.83879 25.6374 8.7051 26.3311 9.80651C27.7222 12.0163 27.8166 14.7407 27.7535 17.3291C27.3145 16.3176 26.2599 15.0026 25.1984 14.7302C28.9534 17.7842 28.2 24.0403 25.9981 27.95Z" fill="#B19661"/>
<path xmlns="http://www.w3.org/2000/svg" d="M45.6097 12.3155C45.6097 14.6992 44.2383 17.1948 39.9029 17.1948H33.1787L35.9435 1.37549H42.1586C44.1937 1.37549 46.3654 2.02187 46.3654 5.02974C46.3654 7.56975 44.8794 8.79484 43.1316 9.04044C44.6576 9.28546 45.6091 10.3104 45.6091 12.3161L45.6097 12.3155ZM41.3409 11.9369C41.3409 10.9119 40.9651 10.4219 39.7703 10.4219H38.5316L37.8459 14.3876H39.1066C40.8765 14.3876 41.3409 13.0955 41.3409 11.9369ZM42.1592 5.5647C42.1592 4.49537 41.6282 4.18327 40.8099 4.18327H39.6377L38.996 7.83752H40.1902C41.7388 7.83752 42.1592 6.50043 42.1592 5.5647Z" fill="white"/>
<path xmlns="http://www.w3.org/2000/svg" d="M52.3529 4.76182L51.8896 7.37709H56.9106L56.3315 10.7601H51.3238L50.7562 13.807H56.2637L55.6811 17.1941H45.9929L48.7577 1.37476H58.2907L57.7052 4.76124H52.3523L52.3529 4.76182Z" fill="white"/>
<path xmlns="http://www.w3.org/2000/svg" d="M70.3768 4.76197H66.7271L64.5374 17.1948H60.3793L62.569 4.76197H58.8973L59.4944 1.37549H70.9738L70.3768 4.76197Z" fill="white"/>
<path xmlns="http://www.w3.org/2000/svg" d="M38.4529 28.8528H38.5189L42.1008 19.0078H47.7838L45.0196 34.8225H41.3491L43.4276 23.2624H43.361L39.0494 34.8225H35.9759L35.5781 23.2845H35.5115L33.5876 34.8225H30.0938L32.8579 19.0078H38.2977L38.4529 28.8528Z" fill="#B19661"/>
<path xmlns="http://www.w3.org/2000/svg" d="M68.6707 28.8528H68.7367L72.3186 19.0078H78.0016L75.2374 34.8225H71.5669L73.6454 23.2624H73.5788L69.2672 34.8225H66.1938L65.7959 23.2845H65.7293L63.8055 34.8225H60.3116L63.0758 19.0078H68.5155L68.6707 28.8528Z" fill="#B19661"/>
<path xmlns="http://www.w3.org/2000/svg" d="M47.4683 29.1642C47.4683 25.8675 48.4852 18.6284 55.0525 18.6284C59.6461 18.6284 61.3598 20.6504 60.8299 24.0719L56.9984 24.1343C57.2022 22.8789 56.6468 21.7314 55.0965 21.68C52.2455 21.585 51.1353 26.6609 51.1353 29.0446C51.1353 31.6062 52.3468 32.2555 53.4072 32.2175C54.774 32.1685 55.6722 31.4288 56.0915 29.8765L56.2907 28.852H53.8363L54.3448 25.8448H60.6909L59.1209 34.8211H56.0295L56.4459 32.5267C55.7382 34.2197 54.522 35.1997 52.4656 35.1997C50.2545 35.1997 47.4683 34.4874 47.4683 29.1642Z" fill="#B19661"/>
</g></g><circle cx="17.9985" cy="1" r="7" fill="#EC4899"/><circle cx="17.9986" cy="1" r="5" fill="#000000"/></g> <path opacity="0.15" d="M25.2857 37.0996L17.9974 38V2H22.3398C22.8111 2 23.2758 2.10844 23.6973 2.31672L29.1272 5L31.8138 6.77024C32.0371 6.91735 32.1921 7.1461 32.2447 7.40617L33.9764 15.9634C34.0903 16.5264 33.7023 17.0683 33.1273 17.1495L27.9048 17.8869L26.1676 36.2006C26.1233 36.6676 25.7566 37.0414 25.2857 37.0996Z" fill="black"/></svg>