<?xml version="1.0" encoding="UTF-8"?>
<svg width="36" height="41" viewBox="0 0 36 41" fill="none" class="size-96" xmlns="http://www.w3.org/2000/svg" xmlns:xlink="http://www.w3.org/1999/xlink"><path d="M22.3417 1C22.9661 1 23.583 1.14346 24.1425 1.41992L29.5722 4.10352L29.6278 4.13086L29.6796 4.16504L32.3661 5.93555C32.8098 6.22791 33.1215 6.68472 33.2274 7.20801L34.9589 15.7646C35.1892 16.9029 34.403 17.9795 33.2694 18.1396L28.827 18.7666L27.1649 36.2949C27.0756 37.2366 26.3395 37.9769 25.411 38.0918L18.122 38.9922L17.9999 39.0078L17.8768 38.9922L10.5888 38.0918C9.66014 37.977 8.92321 37.2367 8.83388 36.2949L7.17079 18.7656L2.73036 18.1396C1.59668 17.9796 0.810574 16.9029 1.04091 15.7646L2.77235 7.20801C2.87822 6.68484 3.18922 6.22792 3.63271 5.93555L6.32021 4.16504L6.37099 4.13086L6.42665 4.10352L11.8563 1.41992C12.4159 1.14342 13.0327 1.00003 13.6571 1H22.3417Z" fill="#D8E2ED" stroke="#D8E2ED" stroke-width="2"/><mask id="mask0_399_81" maskUnits="userSpaceOnUse" x="1" y="5" width="8" height="13" style="mask-type: alpha;"><path fill-rule="evenodd" clip-rule="evenodd" d="M6.86752 5L4.18085 6.77024C3.95757 6.91735 3.80257 7.1461 3.74994 7.40617L2.01831 15.9634C1.90439 16.5264 2.29235 17.0683 2.86736 17.1495L8.89111 18L6.86752 5Z" fill="#243D7C"/></mask><g mask="url(#mask0_399_81)"><path fill-rule="evenodd" clip-rule="evenodd" d="M6.86752 5L4.18085 6.77024C3.95757 6.91735 3.80257 7.1461 3.74994 7.40617L2.01831 15.9634C1.90439 16.5264 2.29235 17.0683 2.86736 17.1495L8.89111 18L6.86752 5Z" fill="#CC0000"/><path fill-rule="evenodd" clip-rule="evenodd" d="M1.80872 15L8.89128 16V20L1.80872 19V15Z" fill="#006600"/></g><mask id="mask1_399_81" maskUnits="userSpaceOnUse" x="27" y="5" width="7" height="13" style="mask-type: alpha;"><path fill-rule="evenodd" clip-rule="evenodd" d="M29.1272 5L31.8138 6.77024C32.0371 6.91735 32.1921 7.1461 32.2447 7.40617L33.9764 15.9634C34.0903 16.5264 33.7023 17.0683 33.1273 17.1495L27.1036 18L29.1272 5Z" fill="#243D7C"/></mask><g mask="url(#mask1_399_81)"><path fill-rule="evenodd" clip-rule="evenodd" d="M29.1272 5L31.8138 6.77024C32.0371 6.91735 32.1921 7.1461 32.2447 7.40617L33.9764 15.9634C34.0903 16.5264 33.7023 17.0683 33.1273 17.1495L27.1036 18L29.1272 5Z" fill="#CC0000"/><path fill-rule="evenodd" clip-rule="evenodd" d="M34.1863 15L27.1037 16V20L34.1863 19V15Z" fill="#006600"/></g><path d="M10.7091 37.0996L17.9974 38L25.2857 37.0996C25.7566 37.0414 26.1233 36.6676 26.1676 36.2006L29.1272 5L23.6973 2.31672C23.2758 2.10844 22.8111 2 22.3398 2H13.655C13.1838 2 12.719 2.10844 12.2975 2.31672L6.86769 5L9.82725 36.2006C9.87154 36.6676 10.2382 37.0414 10.7091 37.0996Z" fill="#CC0000"/><mask id="mask2_399_81" maskUnits="userSpaceOnUse" x="6" y="2" width="24" height="36" style="mask-type: alpha;"><path d="M22.3394 2C22.8106 2 23.2763 2.10812 23.6978 2.31641L29.1275 5L26.1675 36.2002C26.1232 36.6672 25.7565 37.0414 25.2857 37.0996L17.9976 38L10.7095 37.0996C10.2386 37.0414 9.87195 36.6672 9.82765 36.2002L6.86769 5L12.2974 2.31641C12.7188 2.10815 13.1836 2.00003 13.6548 2H22.3394Z" fill="white"/></mask><g mask="url(#mask2_399_81)"><path d="M13.4 2.00156C14.2 3.00156 15.8 4.10156 18 4.10156C20.2 4.10156 21.8 3.00156 22.6 2.00156V2L13.4 2.00156Z" fill="#006600" opacity="0.9"/><g><path id="«r188»" d="M 10 14.55 Q 18 7.45 26 14.55" fill="none" stroke="none"/><path d="M1.280 0Q1.236 0 1.224-0.040L1.224-0.040L0.916-1.144Q0.908-1.160 0.896-1.160L0.896-1.160L0.760-1.160Q0.740-1.160 0.740-1.140L0.740-1.140L0.740-0.048Q0.740-0.028 0.726-0.014Q0.712 0 0.692 0L0.692 0L0.224 0Q0.204 0 0.190-0.014Q0.176-0.028 0.176-0.048L0.176-0.048L0.176-2.752Q0.176-2.772 0.190-2.786Q0.204-2.800 0.224-2.800L0.224-2.800L1.032-2.800Q1.252-2.800 1.424-2.694Q1.596-2.588 1.690-2.396Q1.784-2.204 1.784-1.956L1.784-1.956Q1.784-1.720 1.694-1.540Q1.604-1.360 1.444-1.260L1.444-1.260Q1.436-1.256 1.432-1.250Q1.428-1.244 1.432-1.236L1.432-1.236L1.800-0.056L1.804-0.040Q1.804 0 1.760 0L1.760 0L1.280 0ZM0.760-2.316Q0.740-2.316 0.740-2.296L0.740-2.296L0.740-1.612Q0.740-1.592 0.760-1.592L0.760-1.592L0.940-1.592Q1.064-1.592 1.142-1.690Q1.220-1.788 1.220-1.952L1.220-1.952Q1.220-2.120 1.142-2.218Q1.064-2.316 0.940-2.316L0.940-2.316L0.760-2.316Z" transform="translate(12.087 12.939) rotate(-33.263) translate(-1.067 0)" fill="#FFFFFF" paint-order="stroke fill" /><path d="M0.944 0.032Q0.576 0.032 0.356-0.184Q0.136-0.400 0.136-0.760L0.136-0.760L0.136-2.040Q0.136-2.400 0.356-2.616Q0.576-2.832 0.944-2.832L0.944-2.832Q1.312-2.832 1.534-2.616Q1.756-2.400 1.756-2.040L1.756-2.040L1.756-0.760Q1.756-0.400 1.534-0.184Q1.312 0.032 0.944 0.032L0.944 0.032ZM0.944-0.452Q1.056-0.452 1.124-0.530Q1.192-0.608 1.192-0.736L1.192-0.736L1.192-2.064Q1.192-2.192 1.124-2.270Q1.056-2.348 0.944-2.348L0.944-2.348Q0.832-2.348 0.766-2.270Q0.700-2.192 0.700-2.064L0.700-2.064L0.700-0.736Q0.700-0.608 0.766-0.530Q0.832-0.452 0.944-0.452L0.944-0.452Z" transform="translate(13.957 11.907) rotate(-24.158) translate(-1.071 0)" fill="#FFFFFF" paint-order="stroke fill" /><path d="M1.320-2.752Q1.320-2.772 1.334-2.786Q1.348-2.800 1.368-2.800L1.368-2.800L1.832-2.800Q1.852-2.800 1.866-2.786Q1.880-2.772 1.880-2.752L1.880-2.752L1.880-0.048Q1.880-0.028 1.866-0.014Q1.852 0 1.832 0L1.832 0L1.304 0Q1.264 0 1.252-0.040L1.252-0.040L0.756-1.588Q0.752-1.600 0.742-1.598Q0.732-1.596 0.732-1.584L0.732-1.584L0.736-0.048Q0.736-0.028 0.722-0.014Q0.708 0 0.688 0L0.688 0L0.224 0Q0.204 0 0.190-0.014Q0.176-0.028 0.176-0.048L0.176-0.048L0.176-2.752Q0.176-2.772 0.190-2.786Q0.204-2.800 0.224-2.800L0.224-2.800L0.748-2.800Q0.788-2.800 0.800-2.760L0.800-2.760L1.300-1.212Q1.304-1.200 1.314-1.202Q1.324-1.204 1.324-1.216L1.324-1.216L1.320-2.752Z" transform="translate(16.064 11.208) rotate(-12.123) translate(-1.153 0)" fill="#FFFFFF" paint-order="stroke fill" /><path d="M1.352 0Q1.304 0 1.300-0.044L1.300-0.044L1.236-0.428Q1.236-0.448 1.212-0.448L1.212-0.448L0.704-0.448Q0.680-0.448 0.680-0.428L0.680-0.428L0.616-0.044Q0.612 0 0.564 0L0.564 0L0.096 0Q0.044 0 0.056-0.052L0.056-0.052L0.644-2.756Q0.652-2.800 0.696-2.800L0.696-2.800L1.236-2.800Q1.280-2.800 1.288-2.756L1.288-2.756L1.872-0.052L1.876-0.036Q1.876 0 1.832 0L1.832 0L1.352 0ZM0.760-0.904Q0.760-0.884 0.776-0.884L0.776-0.884L1.136-0.884Q1.156-0.884 1.152-0.904L1.152-0.904L0.964-1.996Q0.960-2.008 0.952-2.008Q0.944-2.008 0.940-1.996L0.940-1.996L0.760-0.904Z" transform="translate(18.291 11.005) rotate(1.849) translate(-1.089 0)" fill="#FFFFFF" paint-order="stroke fill" /><path d="M0.224 0Q0.204 0 0.190-0.014Q0.176-0.028 0.176-0.048L0.176-0.048L0.176-2.752Q0.176-2.772 0.190-2.786Q0.204-2.800 0.224-2.800L0.224-2.800L0.692-2.800Q0.712-2.800 0.726-2.786Q0.740-2.772 0.740-2.752L0.740-2.752L0.740-0.504Q0.740-0.484 0.760-0.484L0.760-0.484L1.600-0.484Q1.620-0.484 1.634-0.470Q1.648-0.456 1.648-0.436L1.648-0.436L1.648-0.048Q1.648-0.028 1.634-0.014Q1.620 0 1.600 0L1.600 0L0.224 0Z" transform="translate(20.331 11.301) rotate(14.500) translate(-0.977 0)" fill="#FFFFFF" paint-order="stroke fill" /><path d="M0.224 0Q0.204 0 0.190-0.014Q0.176-0.028 0.176-0.048L0.176-0.048L0.176-2.752Q0.176-2.772 0.190-2.786Q0.204-2.800 0.224-2.800L0.224-2.800L0.948-2.800Q1.312-2.800 1.532-2.588Q1.752-2.376 1.752-2.024L1.752-2.024L1.752-0.776Q1.752-0.424 1.532-0.212Q1.312 0 0.948 0L0.948 0L0.224 0ZM0.740-0.504Q0.740-0.484 0.760-0.484L0.760-0.484L0.940-0.488Q1.048-0.492 1.116-0.580Q1.184-0.668 1.188-0.812L1.188-0.812L1.188-1.988Q1.188-2.140 1.120-2.228Q1.052-2.316 0.936-2.316L0.936-2.316L0.760-2.316Q0.740-2.316 0.740-2.296L0.740-2.296L0.740-0.504Z" transform="translate(22.258 12.005) rotate(25.283) translate(-1.077 0)" fill="#FFFFFF" paint-order="stroke fill" /><path d="M0.944 0.032Q0.576 0.032 0.356-0.184Q0.136-0.400 0.136-0.760L0.136-0.760L0.136-2.040Q0.136-2.400 0.356-2.616Q0.576-2.832 0.944-2.832L0.944-2.832Q1.312-2.832 1.534-2.616Q1.756-2.400 1.756-2.040L1.756-2.040L1.756-0.760Q1.756-0.400 1.534-0.184Q1.312 0.032 0.944 0.032L0.944 0.032ZM0.944-0.452Q1.056-0.452 1.124-0.530Q1.192-0.608 1.192-0.736L1.192-0.736L1.192-2.064Q1.192-2.192 1.124-2.270Q1.056-2.348 0.944-2.348L0.944-2.348Q0.832-2.348 0.766-2.270Q0.700-2.192 0.700-2.064L0.700-2.064L0.700-0.736Q0.700-0.608 0.766-0.530Q0.832-0.452 0.944-0.452L0.944-0.452Z" transform="translate(24.014 13.006) rotate(33.709) translate(-0.946 0)" fill="#FFFFFF" paint-order="stroke fill" /><path d="M1.376 0Q1.280 0 1.232-0.064Q1.184-0.128 1.216-0.224L1.216-0.224L3.792-8.832Q3.824-8.928 3.728-8.928L3.728-8.928L2.368-8.928Q2.288-8.928 2.288-8.848L2.288-8.848L2.288-8.304Q2.288-8.224 2.232-8.168Q2.176-8.112 2.096-8.112L2.096-8.112L0.336-8.112Q0.256-8.112 0.200-8.168Q0.144-8.224 0.144-8.304L0.144-8.304L0.160-11.008Q0.160-11.088 0.216-11.144Q0.272-11.200 0.352-11.200L0.352-11.200L6.432-11.200Q6.512-11.200 6.568-11.144Q6.624-11.088 6.624-11.008L6.624-11.008L6.624-9.040Q6.624-8.976 6.592-8.816L6.592-8.816L3.984-0.160Q3.936 0 3.776 0L3.776 0L1.376 0Z" transform="translate(14.624 25.480)" fill="#FFFFFF" paint-order="stroke fill" /></g></g> <path opacity="0.15" d="M25.2857 37.0996L17.9974 38V2H22.3398C22.8111 2 23.2758 2.10844 23.6973 2.31672L29.1272 5L31.8138 6.77024C32.0371 6.91735 32.1921 7.1461 32.2447 7.40617L33.9764 15.9634C34.0903 16.5264 33.7023 17.0683 33.1273 17.1495L27.9048 17.8869L26.1676 36.2006C26.1233 36.6676 25.7566 37.0414 25.2857 37.0996Z" fill="black"/></svg>