<?xml version="1.0" encoding="UTF-8"?>
<svg width="38" height="29" viewBox="0 0 38 29" fill="none" class="size-96" xmlns="http://www.w3.org/2000/svg" xmlns:xlink="http://www.w3.org/1999/xlink"><path d="M15.7715 1.03031C21.7099 0.705178 25.4263 3.10173 27.6357 5.62992C28.7299 6.88194 29.4445 8.15247 29.8857 9.10941C30.1068 9.58883 30.2612 9.9932 30.3613 10.2823C30.4114 10.4269 30.4478 10.5433 30.4727 10.626C30.4791 10.6475 30.4844 10.6668 30.4893 10.6836C31.332 12.8791 31.836 14.3529 32.292 16.7452L32.4863 17.836L32.4922 17.876V17.878C32.4923 17.8789 32.493 17.8805 32.4932 17.8819C32.4935 17.8846 32.4936 17.8882 32.4941 17.8926C32.4953 17.9021 32.4971 17.9157 32.499 17.9327C32.5029 17.9664 32.5084 18.0147 32.5146 18.0762C32.5272 18.1996 32.5432 18.377 32.5596 18.5977C32.5922 19.0388 32.625 19.6581 32.625 20.375C32.625 21.7904 32.4984 23.666 31.9482 25.3164C31.8009 25.758 31.3687 26.0393 30.9053 25.9952C22.9953 25.2418 14.512 25.6396 6.92383 27.9346C6.48095 28.0684 6.00368 27.8811 5.77051 27.4815L4.36035 25.0625C2.59159 22.4429 1.75409 19.7894 1.35742 17.794C1.15826 16.792 1.0685 15.9501 1.0293 15.3536C1.00968 15.0551 1.00313 14.817 1.00098 14.6504C0.999901 14.5672 0.999498 14.5016 1 14.4551C1.00025 14.4322 1.00068 14.4139 1.00098 14.4004C1.00113 14.3936 1.00183 14.3872 1.00195 14.3829V14.3711C1.00226 14.3572 1.00306 14.3389 1.00391 14.3164C1.00562 14.2709 1.00812 14.2076 1.01367 14.1289C1.02478 13.9717 1.04633 13.7508 1.08594 13.4766C1.1652 12.928 1.31918 12.1634 1.62012 11.2705C2.22297 9.48195 3.41525 7.17658 5.7627 5.0684L6.20312 4.68656C8.41483 2.83824 10.7225 1.92265 12.5137 1.47074C13.4692 1.22966 14.2824 1.11945 14.8623 1.06937C15.1521 1.04436 15.3846 1.03492 15.5488 1.03129C15.6309 1.02948 15.6965 1.02903 15.7432 1.02934C15.7535 1.0294 15.763 1.0302 15.7715 1.03031Z" fill="#1D19AC" stroke="#D8E2ED" stroke-width="2" stroke-linejoin="round"/><path d="M22.5002 18.4997C14.5002 17.4997 13.2927 9.71939 16.0002 10.4997C18.7077 11.28 27.7729 10.9271 29.3899 10.5387C29.4985 10.8446 29.5461 11.0221 29.5461 11.0221V11.0163C30.4839 13.4577 30.9812 14.9493 31.4729 17.8493C30.6121 18.3027 26.9913 19.061 22.5002 18.4997Z" fill="#030000"/><g transform="translate(10 13) rotate(-4) scale(1.02) translate(-7.5 -5.645380434782608)"><g transform="scale(0.04076086956521739) translate(0 0)">
<path xmlns="http://www.w3.org/2000/svg" d="M319 83.5C301.5 81.5 301.5 83.5 297 87C277.835 106.541 295 169 319 190.5C315.719 200.267 273.976 214 263 214C203.906 214 156 166.094 156 107C156 47.9055 203.906 0 263 0C316.83 0 360.491 37.2509 368 89C368.734 94.0606 324.23 84.0977 319 83.5Z" fill="#FAEA10"/>
<path xmlns="http://www.w3.org/2000/svg" d="M160.344 75.5379C168.764 80.2413 177.475 83.7929 186.467 86.6404C192.238 88.4672 198.267 89.7678 203.676 92.427C216.178 98.5755 227.084 106.911 234.525 119.308C239.696 127.926 244.868 136.54 251.213 144.397C253.358 147.054 254.428 150.328 258.443 151.439C261.61 152.315 264.347 154.905 267.355 156.578C270.043 158.071 272.93 158.723 275.973 158.348C277.718 158.134 279.343 158.524 279.878 160.51C280.402 162.461 279.164 163.57 277.646 164.344C273.746 166.335 269.557 166.279 265.04 165.587C264.556 165.519 264.321 165.504 263.991 165.444C263.806 165.441 263.719 165.484 263.63 165.526C263.74 165.609 263.851 165.69 264.025 165.872C264.299 166.058 264.511 166.144 264.722 166.23C266.819 166.706 268.911 167.451 271.016 167.569C272.663 167.662 273.996 167.857 274.699 169.474C275.417 171.123 274.725 172.449 273.442 173.377C270.179 175.735 266.437 176.349 262.453 175.824C259.01 175.372 255.904 173.978 253.071 171.871C251.805 170.93 250.498 170.046 248.383 168.556C248.441 169.288 248.613 169.775 248.491 170.151C247.085 174.469 244.164 177.454 239.757 177.971C232.539 178.817 227.844 183.085 223.566 188.354C220.736 191.841 216.259 192.481 212.564 190.269C209.973 188.717 208.294 186.452 207.602 183.53C203.926 183.108 202.172 181.1 202.159 177.357C202.156 176.717 202.099 175.996 202.35 175.459C204.066 171.799 203.581 167.708 204.268 163.647C204.246 163.382 204.191 163.314 204.137 163.246C204.143 163.35 204.152 163.454 204.16 163.557C200.617 164.935 196.884 165.867 193.89 168.451C192.781 169.409 191.236 169.85 189.466 170.74C191.08 171.952 192.377 173.217 193.898 174.016C201.23 177.868 204.803 183.745 204.167 192.05C203.988 194.374 203.877 196.706 203.766 199.179C201.956 202.535 200.235 203.518 195.498 204.007C195.239 209.442 190.581 211.142 187.201 213.948C184.778 215.959 182.233 217.82 179.809 219.83C177.717 221.563 175.452 222.649 172.661 221.726C169.462 220.667 165.935 220.391 163.404 217.642C163.027 217.232 162.75 216.668 162.302 216.404C161.698 216.048 160.863 215.578 160.315 215.741C155.742 217.101 155.188 216.944 151.844 212.966C150.543 211.418 149.187 209.918 147.826 208.424C146.029 206.451 145.975 204.027 148.149 202.676C151.095 200.843 154.297 199.417 157.473 197.774C156.931 191.525 162.19 191.527 166.325 190.213C164.264 189.448 162.322 188.729 160.398 188.015C160.093 189.875 159.061 191.288 157.234 191.754C152.468 192.969 147.668 194.067 142.866 195.149C139.474 195.914 136.002 196.398 132.673 197.352C130.954 197.845 129.531 199.233 127.861 199.96C125.378 201.041 122.795 201.896 120.785 202.648C120.492 204.239 120.489 205.497 120.026 206.53C118.516 209.905 117.632 213.283 117.69 217.173C117.725 219.496 116.187 221.957 114.888 224.043C112.216 228.332 109.774 233.002 105.129 235.429C102.247 236.936 99.08 238.218 95.8763 238.739C90.3354 239.638 86.7684 242.616 84.4977 247.577C82.7563 251.379 81.0309 255.271 77.0904 257.26C74.1044 258.765 71.0607 260.238 67.4865 260.404C66.8327 262.454 66.098 264.717 65.3877 266.989C64.0757 271.176 60.5579 272.286 56.8806 273.257C54.4617 273.896 51.9149 273.61 49.8004 275.859C47.2321 278.59 39.9835 276.014 38.4513 272.391C36.7941 268.471 36.5011 264.419 37.5836 260.551C38.2181 258.283 39.7923 256.365 39.0218 253.706C38.8875 253.239 39.4201 252.519 39.7721 252.01C41.3485 249.727 42.951 247.461 44.5821 245.219C47.2207 241.593 50.8113 241.115 54.6752 243.876C55.5589 244.509 56.369 245.248 57.2881 245.997C59.1209 243.169 58.9424 240.039 58.7382 236.915C58.6119 234.988 58.4873 233.057 58.2607 231.136C57.6081 225.59 62.0581 221.963 66.4739 221.341C69.6124 220.9 71.5037 219.407 72.3007 216.36C72.7748 214.55 71.7858 213.366 70.5559 212.31C67.7661 209.913 65.6277 206.991 64.6108 203.503C63.7852 200.671 63.5654 197.677 63.0858 194.806C61.1882 196.239 59.2152 197.888 57.089 199.306C48.6935 204.904 36.9385 205.534 27.9856 198.188C25.8644 196.448 24.2034 193.854 22.9222 191.353C18.1164 181.973 19.3598 172.719 23.0047 163.605C24.1752 160.68 25.304 157.736 26.3978 154.781C26.6218 154.174 26.6155 153.471 26.7616 152.498C24.8404 153.217 23.2421 153.855 21.6186 154.416C15.1612 156.653 8.83801 153.115 5.37535 146.86C3.76791 143.955 2.19735 141.03 0.597358 138.122C-0.684282 135.795 0.176281 133.188 2.41553 132.892C2.98907 132.816 3.82672 133.02 4.22692 133.423C7.23132 136.443 10.8055 136.033 14.2336 135.32C20.518 134.014 26.6345 134.112 32.7336 136.796C39.1991 139.64 42.6756 147.968 40.4571 154.162C38.4623 159.727 35.6443 164.954 33.3778 170.416C31.9429 173.876 31.4238 177.604 32.4734 181.377C33.8772 186.421 38.3086 188.558 43.3808 187.979C50.181 187.203 54.3287 182.538 58.0902 177.425C62.5802 171.322 66.7918 164.985 71.5862 159.145C75.1966 154.747 79.7606 151.344 85.1466 149.124C88.1852 147.872 90.5388 145.895 91.8537 142.434C94.7222 134.889 99.6269 128.682 106.513 124.737C109.093 123.26 110.074 121.394 111.24 119.112C115.219 111.321 120.421 104.56 127.56 99.5041C127.836 99.3082 128.179 99.156 128.514 99.0989C131.7 98.5516 132.526 95.979 133.317 93.3375C135.584 85.7811 140.143 80.1421 146.702 75.9877C151.135 73.1793 155.565 73.6501 160.344 75.5241L160.344 75.5379ZM261.027 173.166C266.716 174.332 272.009 172.932 272.429 169.883C266.038 171.079 261.518 167.34 257.036 163.478C252.71 159.751 248.349 156.069 243.026 153.878C242.686 153.739 242.425 153.383 242.126 153.128C242.132 152.919 242.138 152.712 242.142 152.503C243.316 152.361 244.504 152.02 245.664 152.135C246.829 152.247 247.949 152.93 249.122 153.144C250.013 153.306 251.328 153.484 251.77 153.001C252.26 152.467 252.273 151.084 251.962 150.264C251.406 148.801 250.551 147.413 249.647 146.119C246.212 141.2 242.397 136.518 239.295 131.404C232.599 120.359 226.053 109.446 214.974 101.92C208.823 97.7428 202.717 93.9693 195.657 91.8557C185.148 88.7081 174.621 85.6046 164.762 80.4347C162.417 79.2051 159.98 78.1252 157.504 77.2311C154.434 76.121 151.354 76.1701 148.53 77.8314C142.886 81.1543 138.479 85.8131 136.471 92.1125C134.968 96.8277 132.574 99.8647 128.355 102.491C120.88 107.143 116.028 114.433 112.573 122.664C112.084 123.831 111.3 125.246 110.265 125.711C102.213 129.338 97.3327 135.919 94.0246 143.832C92.708 146.979 90.8344 149.252 87.842 150.551C81.0553 153.502 75.4 157.933 70.9492 163.825C67.1564 168.844 63.6391 174.078 59.9765 179.198C56.0587 184.677 51.3987 189.143 44.4583 190.401C36.024 191.93 29.5236 186.411 29.4925 177.665C29.4769 173.274 30.7834 169.273 32.6616 165.427C34.4822 161.702 36.4783 158.025 37.8492 154.113C40.258 147.238 36.6194 140.447 29.604 138.268C24.9031 136.807 20.1526 136.62 15.4024 137.686C11.0228 138.671 6.69568 138.925 2.42947 135.291C2.76684 136.335 2.89433 137.02 3.19891 137.615C4.38228 139.936 5.53285 142.282 6.85639 144.525C11.7794 152.869 16.1704 154.305 24.8573 150.515C27.4066 149.402 29.572 150.954 29.1135 153.78C28.8007 155.717 28.0289 157.582 27.3115 159.416C25.0943 165.069 22.5714 170.661 22.3319 176.903C21.9929 185.807 24.4261 193.739 32.7778 198.422C39.8955 202.414 47.2072 201.861 54.0104 198.124C56.8898 196.544 59.2548 194.051 61.9394 192.094C62.7073 191.533 63.789 191.133 64.711 191.193C65.0761 191.217 65.503 192.675 65.7119 193.523C65.8971 194.278 65.8462 195.09 65.8571 195.875C65.9417 201.685 67.8423 206.665 72.3773 210.623C75.141 213.035 75.4888 215.222 74.2594 218.548C73.1457 221.556 70.9719 223.087 67.9156 223.667C61.9794 224.796 60.4278 227.116 60.8821 233.294C61.1335 236.706 61.1693 240.153 60.9524 243.55C60.8657 244.925 60.1617 246.559 59.1841 247.452C57.1606 249.301 56.0747 251.503 55.5 254.141C55.0398 256.244 54.2887 258.139 52.2361 259.302C51.4622 259.739 50.7115 260.955 50.7002 261.852C50.6661 264.554 50.9296 267.279 51.2542 269.978C51.3178 270.506 52.1885 271.377 52.6731 271.385C59.0805 271.499 63.2054 268.29 64.3721 262.017C65.8382 254.126 68.7745 246.813 71.7761 239.509C72.9605 236.63 74.7372 234.17 77.4807 232.74C82.5955 230.069 87.8618 227.681 92.9648 224.986C95.1475 223.831 97.5428 222.593 99.0366 220.72C105.471 212.64 108.972 203.714 105.043 192.817C103.78 189.318 103.103 185.591 102.45 181.925C102.098 179.956 102.733 178.074 104.843 176.383C104.969 177.603 105.146 178.275 105.088 178.918C104.419 186.339 107.543 192.478 111.979 198.162C113.538 200.16 115.554 200.851 118.027 200.492C121.974 199.919 125.354 198.105 128.938 196.554C133.666 194.509 138.926 193.635 143.981 192.344C148.035 191.309 152.17 190.548 156.18 189.385C158.327 188.761 158.459 187.045 156.71 185.518C155.9 184.81 154.943 184.28 154.077 183.634C152.673 182.586 152.536 181.372 153.608 179.76C154.248 180.299 154.729 180.817 155.305 181.172C158.591 183.187 161.857 185.249 165.229 187.096C166.153 187.601 167.425 187.392 168.531 187.56C169.755 187.745 171 187.883 172.19 188.226C173.811 188.693 175.426 189.243 176.975 189.929C178.162 190.454 179.642 190.982 180.296 191.972C182.554 195.396 181.347 202.115 178.114 204.35C175.951 205.845 173.58 207.059 171.221 208.244C169.621 209.05 168.379 208.589 166.988 207.065C164.983 204.864 162.524 203.069 160.152 201.246C159.554 200.786 158.407 200.519 157.773 200.777C155.138 201.848 152.555 203.065 150.057 204.414C148.845 205.071 148.842 206.097 150.001 207.186C151.153 208.267 152.148 209.525 153.183 210.732C156.206 214.253 156.212 214.289 160.347 212.859C161.722 212.384 162.735 212.505 163.543 213.944C164.827 216.226 166.798 217.546 169.311 218.089C170.417 218.327 171.509 218.69 172.574 219.098C174.664 219.898 176.393 219.392 178.044 218.066C182 214.89 185.995 211.761 190.003 208.652C192.888 206.414 193.315 204.947 192.356 201.253C191.947 199.678 191.526 197.958 191.739 196.415C192.406 191.571 190.715 187.75 187.263 184.387C185.165 182.342 183.269 180.085 181.282 177.924C181.43 177.707 181.577 177.494 181.726 177.279C183.631 178.43 185.521 179.61 187.447 180.727C190.804 182.676 192.729 185.591 193.273 189.398C193.709 192.448 194.115 195.507 194.372 198.57C194.617 201.482 195.354 202.035 197.941 201.146C200.89 200.132 202.049 197.913 201.978 194.933C201.91 192.078 201.644 189.217 201.415 186.363C201.17 183.298 199.696 180.973 197.183 179.156C193.744 176.67 190.387 174.065 187.037 171.451C185.695 170.404 184.676 170.431 183.611 171.74C182.483 173.127 181.216 174.395 180.006 175.717C177.717 173.461 177.864 173.219 179.574 171.243C180.857 169.762 182.164 167.974 182.578 166.091C184.113 159.096 184.532 151.996 182.159 144.898C181.61 143.255 180.926 141.65 180.461 139.986C180.295 139.39 180.592 138.676 180.679 138.015C181.313 138.338 182.09 138.524 182.545 139.017C183.06 139.573 183.462 140.372 183.612 141.119C184.531 145.686 185.429 150.26 186.19 154.851C186.482 156.609 186.849 157.699 188.839 156.707C189.211 156.522 189.735 156.641 190.715 156.593C190.071 157.575 189.681 158.171 189.29 158.767C187.854 160.96 186.315 163.09 185.048 165.385C184.67 166.069 184.712 167.651 185.178 168.036C185.863 168.6 187.249 168.837 188.076 168.536C190.018 167.827 191.797 166.696 193.662 165.773C195.82 164.705 197.979 163.639 200.172 162.641C201.946 161.836 203.752 161.118 204.47 159.225C201.634 156.085 200.85 152.488 200.29 148.819C200.608 148.673 200.923 148.529 201.241 148.386C202.513 150.761 203.782 153.136 205.053 155.513C205.264 155.522 205.475 155.531 205.684 155.541C206.504 153.623 207.322 151.703 208.141 149.785C208.348 149.838 208.554 149.889 208.761 149.941C208.956 150.439 209.358 150.965 209.311 151.428C209.114 153.389 208.878 155.353 208.481 157.274C207.72 160.948 206.482 164.549 206.155 168.27C205.974 170.331 205.812 172.245 205.156 174.212C204.646 175.741 204.538 177.586 204.824 179.208C205.179 181.217 206.536 181.415 207.901 179.949C208.572 179.228 209.341 178.603 210.067 177.935C210.24 178.06 210.413 178.186 210.586 178.311C210.434 178.877 210.184 179.432 210.149 180.009C210.072 181.257 209.813 182.595 210.151 183.755C210.955 186.511 212.826 188.353 215.667 188.98C218.382 189.579 220.488 188.572 222.128 186.497C226.328 181.186 230.995 176.71 238.252 175.968C242.944 175.49 245.69 172.507 246.875 167.953C247.503 165.533 247.874 165.544 249.989 166.857C253.508 169.038 257.144 171.014 261.025 173.171L261.027 173.166ZM100.989 235.022C102.613 233.966 104.624 233.236 105.785 231.791C108.918 227.892 111.725 223.715 114.566 219.579C115.048 218.879 115.326 217.811 115.231 216.948C114.775 212.774 115.765 209.053 117.803 205.554C118.639 204.12 117.877 203.492 116.395 203.342C115.156 203.215 113.83 203.184 112.713 202.688C110.751 201.816 109.76 202.083 109.681 204.31C109.439 211.113 106.014 216.387 102.406 221.575C100.576 224.208 98.1209 226.08 95.0435 227.157C90.9628 228.587 86.8585 229.996 82.9214 231.754C80.8886 232.663 78.7868 233.968 77.4239 235.684C72.696 241.633 70.7652 249.103 67.9021 256.058C67.4752 257.095 68.0027 258.041 69.2936 257.673C73.5667 256.454 77.7178 254.984 80.012 250.711C81.2734 248.36 82.4157 245.936 83.7538 243.634C85.4927 240.642 87.8913 238.318 91.284 237.374C94.3724 236.516 97.5268 235.881 100.99 235.024L100.989 235.022ZM159.975 196.459C162.941 197.437 164.699 199.669 166.114 202.362C166.598 203.283 167.435 204.078 168.248 204.759C169.842 206.095 171.521 205.991 173.088 204.825C174.526 203.754 175.923 202.627 177.325 201.506C179.239 199.979 179.289 198.32 177.672 196.404C176.903 195.492 176.225 194.435 175.76 193.339C174.721 190.894 173.793 190.423 171.327 191.214C168.947 191.98 166.465 192.481 164.16 193.415C162.622 194.037 161.319 195.213 159.975 196.459ZM48.7065 265.448C48.6859 261.621 48.2695 261.007 44.5652 259.354C42.0748 258.243 40.5961 258.76 40.0475 261.416C39.6269 263.45 39.5464 265.653 39.773 267.743C40.3906 273.461 41.5582 274.331 47.1003 274.04C48.6493 273.958 49.2008 273.275 49.0737 271.765C48.9057 269.773 48.8105 267.777 48.7065 265.448ZM47.6632 257.595C50.5608 257.734 52.4121 256.395 53.3308 253.646C53.6866 252.58 54.1493 251.548 54.6419 250.541C55.3981 248.991 55.5556 247.638 53.8609 246.445C51.0479 244.463 49.024 244.077 47.6144 245.782C45.5803 248.24 43.7471 250.877 41.932 253.516C41.0213 254.842 41.487 256.028 43.0276 256.54C44.428 257.005 45.8953 257.234 47.6611 257.596L47.6632 257.595ZM265.881 158.505C262.411 156.392 258.941 154.279 255.372 152.106C254.884 152.983 254.518 153.652 254.145 154.314C252.748 156.787 252.773 157.135 255.111 158.834C260.674 162.875 266.808 164.433 273.405 163.379C274.925 163.136 276.328 162.258 277.783 161.671C277.723 161.328 277.663 160.983 277.601 160.64C273.571 161.194 269.764 160.494 265.883 158.505L265.881 158.505Z" fill="#FEF9F8"/>
<path xmlns="http://www.w3.org/2000/svg" d="M259.534 173.194C255.828 171.095 252.218 169.129 248.727 166.958C246.626 165.651 246.259 165.642 245.635 168.048C244.458 172.581 241.731 175.551 237.076 176.026C229.872 176.764 225.241 181.219 221.071 186.506C219.443 188.571 217.353 189.573 214.658 188.977C211.838 188.353 209.981 186.52 209.183 183.777C208.847 182.622 209.105 181.29 209.181 180.048C209.215 179.473 209.463 178.92 209.615 178.358C209.443 178.234 209.271 178.108 209.099 177.984C208.38 178.648 207.616 179.273 206.95 179.988C205.593 181.448 204.248 181.25 203.895 179.25C203.612 177.637 203.718 175.8 204.224 174.279C204.876 172.32 205.036 170.415 205.217 168.364C205.541 164.66 206.771 161.078 207.525 157.419C207.919 155.507 208.153 153.552 208.349 151.601C208.395 151.14 207.997 150.616 207.803 150.121C207.598 150.068 207.393 150.018 207.188 149.966C206.375 151.875 205.562 153.786 204.749 155.694C204.54 155.685 204.33 155.676 204.123 155.666C202.86 153.301 201.601 150.938 200.339 148.572C200.026 148.716 199.711 148.861 199.395 149.003C199.952 152.658 200.729 156.236 203.544 159.361C202.832 161.245 201.039 161.96 199.278 162.761C197.1 163.752 194.957 164.813 192.816 165.879C190.965 166.797 189.202 167.924 187.271 168.629C186.45 168.928 185.075 168.692 184.394 168.132C183.931 167.751 183.891 166.175 184.266 165.493C185.523 163.211 187.051 161.09 188.476 158.905C188.864 158.312 189.252 157.719 189.891 156.742C188.917 156.789 188.398 156.671 188.028 156.856C186.051 157.841 185.688 156.758 185.399 155.008C184.642 150.439 183.751 145.886 182.841 141.34C182.692 140.597 182.293 139.801 181.781 139.247C181.329 138.759 180.559 138.572 179.93 138.251C179.843 138.909 179.548 139.618 179.713 140.212C180.174 141.867 180.853 143.466 181.398 145.102C183.755 152.163 183.338 159.232 181.814 166.196C181.404 168.07 180.106 169.847 178.832 171.323C177.135 173.29 176.989 173.531 179.262 175.775C180.462 174.46 181.72 173.199 182.84 171.817C183.896 170.513 184.908 170.488 186.24 171.53C189.563 174.133 192.898 176.725 196.311 179.2C198.806 181.008 200.267 183.32 200.511 186.372C200.74 189.215 201.003 192.061 201.071 194.902C201.143 197.868 199.991 200.077 197.063 201.087C194.498 201.97 193.764 201.421 193.521 198.522C193.265 195.474 192.861 192.429 192.429 189.393C191.891 185.604 189.979 182.702 186.647 180.763C184.738 179.65 182.861 178.477 180.969 177.331C180.823 177.544 180.676 177.759 180.528 177.972C182.5 180.124 184.383 182.372 186.464 184.405C189.89 187.751 191.569 191.554 190.907 196.377C190.696 197.913 191.116 199.624 191.519 201.193C192.471 204.87 192.048 206.33 189.184 208.557C185.206 211.652 181.24 214.766 177.314 217.927C175.675 219.247 173.959 219.751 171.885 218.954C170.828 218.55 169.744 218.189 168.646 217.95C166.151 217.41 164.194 216.093 162.921 213.824C162.117 212.393 161.113 212.272 159.748 212.745C155.643 214.167 155.639 214.134 152.637 210.628C151.61 209.427 150.622 208.174 149.479 207.098C148.328 206.014 148.33 204.993 149.534 204.339C152.014 202.994 154.579 201.783 157.192 200.718C157.823 200.462 158.964 200.729 159.554 201.186C161.908 203 164.35 204.787 166.34 206.977C167.72 208.495 168.951 208.954 170.541 208.151C172.882 206.97 175.236 205.763 177.384 204.275C180.592 202.05 181.791 195.363 179.549 191.955C178.901 190.972 177.431 190.446 176.253 189.921C174.715 189.237 173.112 188.692 171.503 188.227C170.323 187.885 169.086 187.748 167.871 187.564C166.772 187.397 165.509 187.606 164.594 187.102C161.245 185.264 158.005 183.211 154.744 181.206C154.17 180.854 153.692 180.337 153.059 179.8C151.996 181.407 152.13 182.613 153.524 183.656C154.384 184.299 155.334 184.828 156.138 185.531C157.874 187.052 157.743 188.759 155.612 189.38C151.63 190.536 147.526 191.296 143.503 192.326C138.485 193.611 133.264 194.48 128.572 196.516C125.014 198.06 121.661 199.863 117.741 200.435C115.284 200.793 113.287 200.106 111.738 198.116C107.338 192.46 104.237 186.349 104.898 178.962C104.956 178.322 104.78 177.651 104.655 176.439C102.561 178.122 101.931 179.995 102.28 181.955C102.929 185.603 103.601 189.313 104.853 192.797C108.753 203.642 105.28 212.526 98.8916 220.569C97.4106 222.432 95.0311 223.666 92.8649 224.815C87.8023 227.498 82.5742 229.874 77.4953 232.533C74.7726 233.959 73.0085 236.404 71.8332 239.27C68.8529 246.538 65.939 253.819 64.4836 261.673C63.3258 267.917 59.2316 271.111 52.8712 270.997C52.3904 270.989 51.5253 270.12 51.463 269.597C51.141 266.91 50.8793 264.198 50.9132 261.508C50.9245 260.616 51.6695 259.406 52.4376 258.971C54.4751 257.813 55.2198 255.93 55.6772 253.834C56.25 251.208 57.3275 249.015 59.334 247.176C60.3045 246.287 61.0015 244.661 61.0893 243.292C61.305 239.912 61.2674 236.481 61.0195 233.084C60.5687 226.935 62.1086 224.626 68.0012 223.502C71.0342 222.923 73.1942 221.401 74.298 218.407C75.5197 215.096 75.1731 212.92 72.4294 210.519C67.928 206.579 66.0419 201.623 65.9578 195.841C65.947 195.059 65.9976 194.25 65.8136 193.499C65.6066 192.655 65.1826 191.204 64.8206 191.18C63.9049 191.12 62.8316 191.518 62.0689 192.076C59.4026 194.026 57.0561 196.503 54.1991 198.079C47.4453 201.796 40.1885 202.349 33.1236 198.375C24.8332 193.712 22.4177 185.817 22.7547 176.957C22.9905 170.743 25.4971 165.177 27.6977 159.551C28.4106 157.728 29.174 155.871 29.4864 153.941C29.9413 151.129 27.7913 149.586 25.2617 150.692C16.6393 154.464 12.2805 153.035 7.39411 144.729C6.08039 142.498 4.9383 140.163 3.76373 137.852C3.46139 137.259 3.33671 136.578 3 135.539C7.2346 139.156 11.5295 138.904 15.8771 137.923C20.593 136.859 25.3073 137.048 29.9731 138.502C36.9364 140.671 40.5464 147.431 38.1573 154.273C36.7967 158.167 34.8153 161.826 33.0082 165.534C31.1413 169.362 29.8472 173.344 29.8627 177.715C29.8936 186.42 36.3472 191.913 44.7175 190.392C51.6064 189.14 56.2316 184.694 60.1205 179.241C63.756 174.145 67.2494 168.935 71.012 163.94C75.4315 158.075 81.0435 153.665 87.7802 150.727C90.7492 149.433 92.6098 147.173 93.9164 144.04C97.2012 136.167 102.045 129.616 110.037 126.004C111.063 125.539 111.841 124.13 112.328 122.971C115.757 114.778 120.573 107.523 127.992 102.892C132.18 100.278 134.558 97.2572 136.049 92.5623C138.042 86.2922 142.416 81.6555 148.018 78.3481C150.82 76.6926 153.879 76.6457 156.926 77.7506C159.383 78.6404 161.803 79.7152 164.129 80.9391C173.915 86.0849 184.367 89.1729 194.796 92.3069C201.803 94.4109 207.863 98.1671 213.97 102.324C224.967 109.815 231.467 120.678 238.111 131.67C241.188 136.761 244.977 141.42 248.386 146.316C249.284 147.607 250.133 148.988 250.684 150.442C250.993 151.259 250.98 152.635 250.493 153.166C250.054 153.644 248.75 153.469 247.865 153.308C246.702 153.095 245.589 152.416 244.432 152.304C243.281 152.19 242.103 152.532 240.937 152.671C240.931 152.879 240.926 153.088 240.921 153.293C241.218 153.546 241.476 153.901 241.815 154.039C247.098 156.218 251.426 159.885 255.721 163.595C260.172 167.439 264.658 171.161 271 169.969C270.583 173.004 265.329 174.397 259.536 173.189L259.534 173.194ZM222.887 140.248C224.618 144.12 226.35 147.989 228.183 152.088C230.108 147.998 228.85 144.293 226.93 140.556C227.706 141.219 228.253 141.937 228.672 142.726C229.716 144.694 230.654 146.718 231.747 148.657C232.011 149.124 232.706 149.35 233.205 149.685C233.46 149.096 234.053 148.423 233.918 147.932C232.831 143.954 231.439 140.142 227.637 137.802C224.481 135.861 221.404 133.785 218.259 131.821C217.22 131.174 216.083 130.701 214.991 130.148C214.956 131.31 214.76 132.49 214.916 133.631C215.395 137.142 215.944 140.647 216.618 144.129C216.762 144.871 217.534 145.509 218.017 146.194C218.36 144.341 218.153 142.688 218.375 141.111C218.537 139.948 219.26 138.887 219.733 137.781C220.709 138.51 221.685 139.24 222.892 140.244L222.887 140.248ZM163.077 106.233C168.046 107.906 172.685 110.039 175.483 115.032C175.795 115.589 176.804 115.758 177.491 116.109C177.464 115.382 177.657 114.557 177.373 113.946C176.001 110.99 173.746 108.752 171.034 107.12C167.441 104.958 163.746 102.965 160.021 101.059C159.012 100.543 157.684 100.342 156.591 100.5C155.809 100.613 155.174 101.567 154.472 102.144C155.077 102.86 155.561 103.931 156.314 104.222C158.413 105.033 160.623 105.519 163.077 106.233ZM227.653 171.617C229.609 172.52 230.897 171.485 231.763 170C232.734 168.332 231.674 165.961 229.462 164.422C227.926 166.451 226.764 168.583 227.653 171.617Z" fill="#E4202A"/>
<path xmlns="http://www.w3.org/2000/svg" d="M100.462 235.141C97.1277 235.942 93.9353 236.582 90.8115 237.447C87.3779 238.399 84.9503 240.743 83.1903 243.76C81.8363 246.081 80.6821 248.526 79.4036 250.897C77.0816 255.206 72.8807 256.689 68.5559 257.918C67.2475 258.29 66.7154 257.335 67.1474 256.289C70.0449 249.275 71.9992 241.742 76.7842 235.742C78.1638 234.012 80.2906 232.696 82.348 231.78C86.3329 230.006 90.4864 228.586 94.6165 227.143C97.728 226.056 100.214 224.17 102.068 221.514C105.719 216.279 109.185 210.962 109.43 204.102C109.511 201.856 110.513 201.586 112.499 202.466C113.629 202.967 114.971 202.998 116.225 203.125C117.726 203.279 118.495 203.912 117.651 205.357C115.59 208.884 114.588 212.637 115.047 216.847C115.143 217.716 114.86 218.795 114.374 219.501C111.5 223.672 108.658 227.884 105.488 231.817C104.313 233.273 102.277 234.01 100.464 235.138L100.462 235.141Z" fill="#E4212B"/>
<path xmlns="http://www.w3.org/2000/svg" d="M158 195.487C159.458 194.391 160.839 193.206 162.466 192.576C164.906 191.635 167.536 191.126 170.057 190.356C172.671 189.557 173.651 190.033 174.752 192.5C175.244 193.605 175.962 194.67 176.777 195.591C178.49 197.524 178.436 199.198 176.41 200.739C174.925 201.868 173.446 203.007 171.921 204.087C170.263 205.263 168.485 205.368 166.796 204.02C165.935 203.333 165.049 202.531 164.536 201.602C163.038 198.885 161.176 196.634 158 195.487Z" fill="#E5232D"/>
<path xmlns="http://www.w3.org/2000/svg" d="M45.6224 265.129C45.7323 267.392 45.8231 269.482 45.9832 271.567C46.1044 273.148 45.5782 273.86 44.1023 273.948C38.8197 274.255 37.7058 273.343 37.1171 267.357C36.9023 265.165 36.9793 262.861 37.3786 260.733C37.9024 257.954 39.3094 257.413 41.6854 258.575C45.2166 260.305 45.6131 260.945 45.6208 265.13L45.6224 265.129Z" fill="#E5242E"/>
<path xmlns="http://www.w3.org/2000/svg" d="M45.7132 257.987C44.1957 257.638 42.8042 257.406 41.4779 256.938C40.018 256.422 39.5759 255.224 40.4393 253.889C42.1588 251.23 43.8972 248.568 45.8245 246.088C47.1608 244.369 49.0764 244.757 51.7446 246.757C53.3505 247.96 53.2013 249.325 52.4847 250.888C52.0182 251.903 51.5793 252.945 51.242 254.02C50.3715 256.792 48.6171 258.142 45.716 257.988L45.7132 257.987Z" fill="#E4222C"/>
<path xmlns="http://www.w3.org/2000/svg" d="M265.516 156.69C269.17 158.681 272.887 159.407 276.821 158.833C276.88 159.189 276.94 159.547 277 159.901C275.578 160.506 274.211 161.417 272.725 161.669C266.286 162.76 260.296 161.146 254.864 156.964C252.581 155.205 252.557 154.848 253.92 152.285C254.284 151.6 254.642 150.908 255.118 150C258.602 152.25 261.991 154.437 265.514 156.691L265.516 156.69Z" fill="#E5262F"/>
<path xmlns="http://www.w3.org/2000/svg" d="M223.472 139.533C222.442 138.703 221.522 138.006 220.601 137.306C220.154 138.365 219.474 139.38 219.319 140.493C219.109 142.001 219.306 143.583 218.982 145.359C218.526 144.703 217.798 144.092 217.662 143.382C217.028 140.049 216.507 136.692 216.056 133.334C215.909 132.242 216.094 131.111 216.128 130C217.157 130.53 218.232 130.983 219.21 131.602C222.176 133.479 225.081 135.468 228.057 137.327C231.644 139.566 232.956 143.215 233.981 147.022C234.109 147.492 233.55 148.138 233.309 148.7C232.84 148.379 232.182 148.163 231.934 147.716C230.902 145.86 230.018 143.921 229.032 142.039C228.638 141.286 228.122 140.599 227.389 139.962C229.201 143.539 230.387 147.085 228.572 151C226.84 147.076 225.208 143.372 223.466 139.535L223.472 139.533Z" fill="#FEF5F6"/>
<path xmlns="http://www.w3.org/2000/svg" d="M164.441 106.494C162.137 105.857 159.933 105.391 157.837 104.615C157.088 104.337 156.605 103.311 156 102.625C156.699 102.071 157.333 101.157 158.113 101.05C159.204 100.899 160.526 101.093 161.535 101.586C165.251 103.411 168.936 105.319 172.52 107.391C175.225 108.955 177.472 111.099 178.843 113.929C179.126 114.514 178.934 115.304 178.962 116C178.277 115.667 177.27 115.505 176.959 114.97C174.166 110.185 169.54 108.144 164.441 106.494Z" fill="#FEF6F7"/>
<path xmlns="http://www.w3.org/2000/svg" d="M228.264 169.555C227.445 166.447 228.649 164.17 230.241 162C232.533 163.645 233.632 166.182 232.625 167.964C231.728 169.553 230.394 170.658 228.264 169.555Z" fill="#FEF3F4"/>
</g></g></svg>