<?xml version="1.0" encoding="UTF-8"?>
<svg width="28" height="40" viewBox="0 0 28 40" fill="none" class="size-96" xmlns="http://www.w3.org/2000/svg" xmlns:xlink="http://www.w3.org/1999/xlink"><path d="M20.3525 1L20.5127 1.0127C20.631 1.03191 20.7434 1.07512 20.8476 1.13477L20.8496 1.13281L24.1924 3.02734C24.5451 3.22738 24.7424 3.62109 24.6914 4.02344L23.4521 13.7939L26.581 16.2891C26.639 16.3353 26.6919 16.3884 26.7383 16.4463L26.7392 16.4473L26.7402 16.4492C26.741 16.4502 26.7423 16.451 26.7431 16.4521C26.7449 16.4544 26.7468 16.4571 26.749 16.46C26.7534 16.4656 26.7603 16.4735 26.7676 16.4834C26.7743 16.4926 26.7849 16.5089 26.7978 16.5283C26.8018 16.5342 26.8066 16.5399 26.8105 16.5459C26.8564 16.6159 26.899 16.6982 26.9326 16.793C26.9918 16.96 27.0115 17.14 26.9961 17.3252L26.997 17.3262V17.3389C26.9966 17.3474 26.995 17.3603 26.9941 17.377C26.9923 17.4106 26.9899 17.4605 26.9863 17.5254C26.9791 17.6556 26.9685 17.8466 26.9551 18.0898C26.9282 18.5765 26.89 19.2724 26.8437 20.1084C26.7511 21.7806 26.6263 24.015 26.501 26.2607C26.2522 30.7173 25.9938 35.3102 25.9677 35.541C25.943 35.7598 25.8846 36.1784 25.5605 36.5176C25.2448 36.8478 24.8358 36.9337 24.6269 36.9736C24.2381 37.048 14.4263 38.9368 14.1943 38.9814L14.1933 38.9805C14.1325 38.9921 14.0703 39 14.0068 39H13.997C13.9336 39 13.8699 38.9944 13.8076 38.9824C13.552 38.9332 3.77117 37.049 3.37693 36.9736H3.37595C3.16719 36.9337 2.75898 36.8476 2.44334 36.5186C2.11849 36.1796 2.05899 35.761 2.03416 35.541C2.00812 35.3102 1.75041 30.7164 1.50193 26.2598C1.37672 24.0141 1.25267 21.7805 1.16013 20.1084C1.11386 19.2724 1.07568 18.5765 1.0488 18.0898C1.03537 17.8466 1.02474 17.6556 1.01755 17.5254C1.01397 17.4605 1.01062 17.4106 1.00876 17.377C1.00785 17.3604 1.00728 17.3474 1.00681 17.3389C1.00659 17.3348 1.00693 17.3312 1.00681 17.3291L1.00584 17.3262C1.00583 17.3262 1.00616 17.3253 1.00779 17.3252C0.992307 17.1401 1.01112 16.9599 1.07029 16.793C1.1039 16.6982 1.1474 16.6159 1.19334 16.5459C1.20085 16.5344 1.21015 16.5244 1.21775 16.5137C1.226 16.5015 1.23015 16.4908 1.23337 16.4863C1.28666 16.4124 1.34964 16.3459 1.42087 16.2891L4.55076 13.793L3.31248 4.02344C3.26146 3.62107 3.45867 3.22737 3.8115 3.02734L7.1533 1.13281V1.13477C7.30492 1.04752 7.4762 1 7.65134 1H20.3525Z" fill="#FDB927" stroke="#D8E2ED" stroke-width="2"/><path d="M7.64682 2L7.64215 2.00253L4.29982 3.89746L5.60918 14.2256L2.04059 17.0715L2.03244 17.0842L2 17.2709L3.02403 35.4285C2.99826 35.7613 3.20517 35.9911 3.55975 35.9911L13.9973 38L13.9995 38L14.0017 38L24.4392 35.9911C24.7938 35.9911 25.0008 35.7614 24.975 35.4285L25.999 17.2709C26.0067 17.208 25.9666 17.0842 25.9666 17.0842L25.9584 17.0715L22.3898 14.2256L23.6992 3.89746L20.3569 2.00253L20.3522 2H7.64682Z" fill="#FDB927"/><mask id="mask2_399_81" maskUnits="userSpaceOnUse" x="2" y="2" width="24" height="36" style="mask-type: alpha;"><path d="M7.64682 2L7.64215 2.00253L4.29982 3.89746L5.60918 14.2256L2.04059 17.0715L2.03244 17.0842L2 17.2709L3.02403 35.4285C2.99826 35.7613 3.20517 35.9911 3.55975 35.9911L13.9973 38L13.9995 38L14.0017 38L24.4392 35.9911C24.7938 35.9911 25.0008 35.7614 24.975 35.4285L25.999 17.2709C26.0067 17.208 25.9666 17.0842 25.9666 17.0842L25.9584 17.0715L22.3898 14.2256L23.6992 3.89746L20.3569 2.00253L20.3522 2H7.64682Z" fill="white"/></mask><g mask="url(#mask2_399_81)"><path d="M4.29982 3.89746L5.60918 14.2256L2.04059 17.0715" stroke="#552583" stroke-width="4" stroke-linecap="square" stroke-linejoin="round"/><path d="M23.6994 3.9L22.39 14.2282L25.9586 17.074" stroke="#552583" stroke-width="4" stroke-linecap="square" stroke-linejoin="round"/><circle cx="14" cy="2" r="4" fill="#bc8102"/><g><path d="M0.196 0Q0.178 0 0.166-0.012Q0.154-0.025 0.154-0.042L0.154-0.042L0.154-2.408Q0.154-2.425 0.166-2.438Q0.178-2.450 0.196-2.450L0.196-2.450L0.606-2.450Q0.623-2.450 0.635-2.438Q0.647-2.425 0.647-2.408L0.647-2.408L0.647-0.441Q0.647-0.423 0.665-0.423L0.665-0.423L1.400-0.423Q1.417-0.423 1.430-0.411Q1.442-0.399 1.442-0.382L1.442-0.382L1.442-0.042Q1.442-0.025 1.430-0.012Q1.417 0 1.400 0L1.400 0L0.196 0Z" transform="translate(8.524 13.600)" fill="#552583" paint-order="stroke fill" /><path d="M1.183 0Q1.141 0 1.137-0.038L1.137-0.038L1.082-0.374Q1.082-0.392 1.060-0.392L1.060-0.392L0.616-0.392Q0.595-0.392 0.595-0.374L0.595-0.374L0.539-0.038Q0.535 0 0.493 0L0.493 0L0.084 0Q0.038 0 0.049-0.045L0.049-0.045L0.564-2.412Q0.571-2.450 0.609-2.450L0.609-2.450L1.082-2.450Q1.120-2.450 1.127-2.412L1.127-2.412L1.638-0.045L1.641-0.032Q1.641 0 1.603 0L1.603 0L1.183 0ZM0.665-0.791Q0.665-0.773 0.679-0.773L0.679-0.773L0.994-0.773Q1.012-0.773 1.008-0.791L1.008-0.791L0.844-1.746Q0.840-1.757 0.833-1.757Q0.826-1.757 0.823-1.746L0.823-1.746L0.665-0.791Z" transform="translate(10.324 13.600)" fill="#552583" paint-order="stroke fill" /><path d="M0.196 0Q0.178 0 0.166-0.012Q0.154-0.025 0.154-0.042L0.154-0.042L0.154-2.408Q0.154-2.425 0.166-2.438Q0.178-2.450 0.196-2.450L0.196-2.450L0.606-2.450Q0.623-2.450 0.635-2.438Q0.647-2.425 0.647-2.408L0.647-2.408L0.647-1.526Q0.647-1.512 0.656-1.510Q0.665-1.508 0.668-1.522L0.668-1.522L1.120-2.418Q1.137-2.450 1.169-2.450L1.169-2.450L1.603-2.450Q1.627-2.450 1.636-2.438Q1.645-2.425 1.635-2.401L1.635-2.401L1.117-1.393Q1.113-1.379 1.113-1.372L1.113-1.372L1.663-0.049Q1.666-0.042 1.666-0.028L1.666-0.028Q1.666 0 1.631 0L1.631 0L1.194 0Q1.155 0 1.145-0.032L1.145-0.032L0.780-0.949Q0.777-0.959 0.770-0.957Q0.763-0.956 0.756-0.949L0.756-0.949L0.654-0.767Q0.647-0.753 0.647-0.746L0.647-0.746L0.647-0.042Q0.647-0.025 0.635-0.012Q0.623 0 0.606 0L0.606 0L0.196 0Z" transform="translate(12.261 13.600)" fill="#552583" paint-order="stroke fill" /><path d="M1.439-2.069Q1.439-2.051 1.426-2.039Q1.414-2.026 1.397-2.026L1.397-2.026L0.665-2.026Q0.647-2.026 0.647-2.009L0.647-2.009L0.647-1.456Q0.647-1.439 0.665-1.439L0.665-1.439L1.085-1.439Q1.103-1.439 1.115-1.426Q1.127-1.414 1.127-1.397L1.127-1.397L1.127-1.057Q1.127-1.040 1.115-1.027Q1.103-1.015 1.085-1.015L1.085-1.015L0.665-1.015Q0.647-1.015 0.647-0.998L0.647-0.998L0.647-0.441Q0.647-0.423 0.665-0.423L0.665-0.423L1.397-0.423Q1.414-0.423 1.426-0.411Q1.439-0.399 1.439-0.382L1.439-0.382L1.439-0.042Q1.439-0.025 1.426-0.012Q1.414 0 1.397 0L1.397 0L0.196 0Q0.178 0 0.166-0.012Q0.154-0.025 0.154-0.042L0.154-0.042L0.154-2.408Q0.154-2.425 0.166-2.438Q0.178-2.450 0.196-2.450L0.196-2.450L1.397-2.450Q1.414-2.450 1.426-2.438Q1.439-2.425 1.439-2.408L1.439-2.408L1.439-2.069Z" transform="translate(14.230 13.600)" fill="#552583" paint-order="stroke fill" /><path d="M1.120 0Q1.082 0 1.071-0.035L1.071-0.035L0.801-1.001Q0.794-1.015 0.784-1.015L0.784-1.015L0.665-1.015Q0.647-1.015 0.647-0.998L0.647-0.998L0.647-0.042Q0.647-0.025 0.635-0.012Q0.623 0 0.606 0L0.606 0L0.196 0Q0.178 0 0.166-0.012Q0.154-0.025 0.154-0.042L0.154-0.042L0.154-2.408Q0.154-2.425 0.166-2.438Q0.178-2.450 0.196-2.450L0.196-2.450L0.903-2.450Q1.095-2.450 1.246-2.357Q1.397-2.264 1.479-2.097Q1.561-1.929 1.561-1.712L1.561-1.712Q1.561-1.505 1.482-1.347Q1.403-1.190 1.264-1.103L1.264-1.103Q1.256-1.099 1.253-1.094Q1.250-1.089 1.253-1.082L1.253-1.082L1.575-0.049L1.579-0.035Q1.579 0 1.540 0L1.540 0L1.120 0ZM0.665-2.026Q0.647-2.026 0.647-2.009L0.647-2.009L0.647-1.411Q0.647-1.393 0.665-1.393L0.665-1.393L0.823-1.393Q0.931-1.393 0.999-1.479Q1.068-1.565 1.068-1.708L1.068-1.708Q1.068-1.855 0.999-1.941Q0.931-2.026 0.823-2.026L0.823-2.026L0.665-2.026Z" transform="translate(16.013 13.600)" fill="#552583" paint-order="stroke fill" /><path d="M0.784 0.028Q0.581 0.028 0.427-0.052Q0.273-0.133 0.189-0.278Q0.105-0.423 0.105-0.613L0.105-0.613L0.105-0.714Q0.105-0.732 0.117-0.744Q0.130-0.756 0.147-0.756L0.147-0.756L0.549-0.756Q0.567-0.756 0.579-0.744Q0.592-0.732 0.592-0.714L0.592-0.714L0.592-0.637Q0.592-0.528 0.647-0.462Q0.704-0.396 0.787-0.396L0.787-0.396Q0.872-0.396 0.927-0.459Q0.984-0.521 0.984-0.623L0.984-0.623Q0.984-0.728 0.913-0.803Q0.844-0.879 0.640-1.026L0.640-1.026Q0.466-1.151 0.357-1.250Q0.248-1.347 0.172-1.491Q0.095-1.635 0.095-1.824L0.095-1.824Q0.095-2.121 0.280-2.300Q0.466-2.478 0.770-2.478L0.770-2.478Q1.078-2.478 1.265-2.292Q1.453-2.107 1.453-1.806L1.453-1.806L1.453-1.722Q1.453-1.705 1.440-1.692Q1.428-1.680 1.411-1.680L1.411-1.680L1.008-1.680Q0.991-1.680 0.978-1.692Q0.966-1.705 0.966-1.722L0.966-1.722L0.966-1.817Q0.966-1.925 0.912-1.990Q0.858-2.054 0.770-2.054L0.770-2.054Q0.686-2.054 0.634-1.993Q0.581-1.932 0.581-1.824L0.581-1.824Q0.581-1.719 0.647-1.638Q0.714-1.558 0.910-1.414L0.910-1.414Q1.127-1.253 1.237-1.153Q1.347-1.054 1.409-0.933Q1.470-0.812 1.470-0.644L1.470-0.644Q1.470-0.336 1.281-0.154Q1.092 0.028 0.784 0.028L0.784 0.028Z" transform="translate(17.922 13.600)" fill="#552583" paint-order="stroke fill" /><path d="M3.568-2.368Q3.536-2.336 3.552-2.304Q3.568-2.272 3.616-2.272L3.616-2.272L6.816-2.272Q6.896-2.272 6.952-2.216Q7.008-2.160 7.008-2.080L7.008-2.080L7.008-0.192Q7.008-0.112 6.952-0.056Q6.896 0 6.816 0L6.816 0L0.544 0Q0.464 0 0.408-0.056Q0.352-0.112 0.352-0.192L0.352-0.192L0.352-2.144Q0.352-2.256 0.432-2.384L0.432-2.384Q0.384-2.320 1.264-3.360L1.264-3.360Q1.872-4.080 2.448-4.792Q3.024-5.504 3.392-6.048L3.392-6.048Q4.192-7.280 4.192-8.160L4.192-8.160Q4.192-8.608 4.024-8.832Q3.856-9.056 3.584-9.056L3.584-9.056Q3.312-9.056 3.144-8.832Q2.976-8.608 2.992-8.256L2.992-8.256L2.992-7.568Q2.992-7.488 2.936-7.432Q2.880-7.376 2.800-7.376L2.800-7.376L0.496-7.376Q0.416-7.376 0.360-7.432Q0.304-7.488 0.304-7.568L0.304-7.568L0.304-8.368Q0.384-9.696 1.328-10.512Q2.272-11.328 3.712-11.328L3.712-11.328Q4.640-11.328 5.360-10.928Q6.080-10.528 6.480-9.808Q6.880-9.088 6.880-8.144L6.880-8.144Q6.880-7.296 6.616-6.568Q6.352-5.840 5.760-5.008L5.760-5.008Q5.280-4.320 4.208-3.120L4.208-3.120L3.568-2.368Z" transform="translate(6.824 29.480)" fill="#552583" paint-order="stroke fill" /><path d="M6.704-4.576Q6.752-4.096 6.752-3.600L6.752-3.600Q6.752-3.232 6.720-2.560L6.720-2.560Q6.656-1.344 5.808-0.608Q4.960 0.128 3.584 0.128L3.584 0.128Q2.640 0.128 1.904-0.216Q1.168-0.560 0.752-1.184Q0.336-1.808 0.320-2.608L0.320-2.608Q0.288-3.152 0.288-3.456L0.288-3.456Q0.288-3.648 0.480-3.648L0.480-3.648L2.752-3.648Q2.944-3.648 2.944-3.456L2.944-3.456Q2.944-3.232 2.976-2.880L2.976-2.880Q3.008-2.544 3.168-2.352Q3.328-2.160 3.584-2.160L3.584-2.160Q3.840-2.160 4.008-2.344Q4.176-2.528 4.208-2.848L4.208-2.848Q4.224-3.200 4.224-3.888L4.224-3.888Q4.224-4.592 4.192-4.912L4.192-4.912Q4.176-5.216 4.008-5.400Q3.840-5.584 3.584-5.584L3.584-5.584Q3.328-5.584 3.040-5.328L3.040-5.328Q2.976-5.264 2.912-5.264L2.912-5.264Q2.864-5.264 2.768-5.328L2.768-5.328L1.600-6.544Q1.536-6.640 1.536-6.688L1.536-6.688Q1.536-6.752 1.600-6.816L1.600-6.816L3.488-8.848Q3.552-8.944 3.456-8.944L3.456-8.944L0.704-8.944Q0.624-8.944 0.568-9Q0.512-9.056 0.512-9.136L0.512-9.136L0.512-11.008Q0.512-11.088 0.568-11.144Q0.624-11.200 0.704-11.200L0.704-11.200L6.544-11.200Q6.624-11.200 6.680-11.144Q6.736-11.088 6.736-11.008L6.736-11.008L6.736-9.072Q6.736-8.944 6.640-8.848L6.640-8.848L4.912-6.848Q4.848-6.752 4.944-6.752L4.944-6.752Q5.664-6.704 6.160-6.080Q6.656-5.456 6.704-4.576L6.704-4.576Z" transform="translate(14.040 29.480)" fill="#552583" paint-order="stroke fill" /></g></g> <path opacity="0.15" d="M13.9973 38L13.9995 38L14.0017 38L24.4392 35.9911C24.7938 35.9911 25.0008 35.7614 24.975 35.4285L25.999 17.2709C26.0067 17.208 25.9666 17.0842 25.9666 17.0842L25.9584 17.0715L22.3898 14.2256L23.6992 3.89746L20.3569 2.00253L20.3522 2H13.9995L13.9973 38Z" fill="black"/></svg>