<?xml version="1.0" encoding="UTF-8"?>
<svg width="40" height="30" viewBox="0 0 40 30" fill="none" class="size-64" xmlns="http://www.w3.org/2000/svg"><path d="M15.7715 1.03031C21.7099 0.705174 25.4263 3.10172 27.6357 5.62992C28.7299 6.88194 29.4445 8.15247 29.8857 9.10941C30.1068 9.58883 30.2612 9.9932 30.3613 10.2823C30.4114 10.4269 30.4478 10.5433 30.4727 10.626C30.4804 10.6517 30.4867 10.6743 30.4922 10.6934L30.5342 10.8311C30.7153 11.5185 30.4964 12.1661 30.3359 12.5293C30.2404 12.7456 30.1363 12.927 30.0566 13.0537C30.0163 13.1179 29.98 13.1707 29.9531 13.209C29.9398 13.228 29.9287 13.2438 29.9199 13.2559C29.9155 13.262 29.9114 13.2673 29.9082 13.2715C29.9067 13.2736 29.9055 13.2758 29.9043 13.2774L29.9014 13.2803V13.2813C29.7735 13.4495 29.5949 13.573 29.3926 13.6338C28.0454 14.0391 27.2251 14.6055 26.7207 15.1709C26.2177 15.7349 25.9796 16.3534 25.8838 16.9434C25.7866 17.5423 25.8372 18.1104 25.918 18.5381C25.9579 18.7495 26.0037 18.9202 26.0381 19.0332C26.0454 19.0572 26.0526 19.0783 26.0586 19.0967C26.065 19.1066 26.0722 19.1171 26.0791 19.128C26.1396 19.2237 26.2202 19.3586 26.3096 19.5274C26.4878 19.8638 26.7065 20.3447 26.8721 20.9327C27.2046 22.1134 27.3303 23.7593 26.457 25.501C25.5368 27.3362 23.7312 28.2228 22.1025 28.6368C20.4607 29.054 18.8035 29.0461 17.8555 28.9356L17.8506 28.9346C17.5155 28.8938 17.2007 28.8211 16.9268 28.753C16.9219 28.7517 16.917 28.7503 16.9121 28.7491C16.2831 28.5824 15.648 28.3596 15.0996 28.1592C14.5323 27.9519 13.982 27.7234 13.4473 27.4961C13.0508 27.3289 12.6642 27.1525 12.2734 26.9502L12.2695 26.9483C12.2344 26.93 12.181 26.9115 12.0723 26.9053C11.9457 26.8982 11.8064 26.9087 11.5713 26.9268L11.5703 26.9258C11.106 26.966 10.6599 27.0372 10.1543 27.1368C9.64256 27.2376 9.13191 27.355 8.61133 27.4805C8.20052 27.5847 7.80348 27.6861 7.4082 27.7969C7.18465 27.8621 7.10208 27.8807 6.92383 27.9346C6.48095 28.0684 6.00368 27.8811 5.77051 27.4815L4.35938 25.0606C2.59144 22.4415 1.754 19.7889 1.35742 17.794C1.15826 16.792 1.0685 15.9501 1.0293 15.3535C1.00968 15.0551 1.00313 14.817 1.00098 14.6504C0.999901 14.5672 0.999498 14.5016 1 14.4551C1.00025 14.4322 1.00068 14.4139 1.00098 14.4004C1.00113 14.3936 1.00183 14.3872 1.00195 14.3828V14.3711C1.00226 14.3572 1.00306 14.3389 1.00391 14.3164C1.00562 14.2709 1.00812 14.2076 1.01367 14.1289C1.02478 13.9717 1.04633 13.7508 1.08594 13.4766C1.1652 12.928 1.31918 12.1634 1.62012 11.2705C2.22297 9.48194 3.41525 7.17658 5.7627 5.06839L6.20312 4.68656C8.41483 2.83824 10.7225 1.92265 12.5137 1.47074C13.4692 1.22966 14.2824 1.11944 14.8623 1.06937C15.1521 1.04436 15.3846 1.03491 15.5488 1.03128C15.6309 1.02947 15.6965 1.02902 15.7432 1.02933C15.7535 1.0294 15.763 1.0302 15.7715 1.03031Z" fill="#CE1141" stroke="#D8E2ED" stroke-width="2" stroke-linejoin="round"/><path fill-rule="evenodd" clip-rule="evenodd" d="M30.2557 10.365C30.5386 10.2382 30.8776 10.354 31.0077 10.6296C31.1434 10.9053 31.019 11.2362 30.7362 11.363L26.2333 13.4304L28.66 19.6384L36.1961 18.1111C36.4789 18.0561 36.7676 18.216 36.8524 18.4861L37.4803 20.4597C37.4816 20.4638 37.4811 20.4683 37.4823 20.4724C38.6748 23.5926 37.4458 27.2779 37.3895 27.4314C37.3103 27.6627 37.1406 27.8112 36.9032 27.8113H36.8573C36.8133 27.8113 36.7321 27.7956 36.7274 27.7947L30.7528 26.405C30.5833 26.3663 30.4474 26.2565 30.3739 26.1023L28.785 22.7986C25.581 23.293 23.9821 23.5413 23.8172 23.5417H23.7049C23.6088 23.5417 23.405 23.5411 19.5018 22.3503C19.3434 22.3007 19.2181 22.1906 19.1503 22.0417C19.0825 21.8929 19.0885 21.727 19.162 21.5837L21.8378 16.2253C21.8532 16.1915 21.8751 16.1612 21.8993 16.1326C21.9064 16.1234 21.9141 16.1148 21.9217 16.1062C21.9259 16.1019 21.9301 16.0967 21.9344 16.0925L25.0965 12.78C25.1475 12.7249 25.2095 12.6803 25.2831 12.6472L30.2557 10.365ZM29.9286 22.5896L31.2733 25.3913L36.4559 26.5925C36.714 25.6067 37.1758 23.3032 36.5585 21.2595L29.9286 22.5896ZM20.4745 21.4851H20.4686C21.8094 21.8931 23.3995 22.3617 23.7333 22.4333C24.0785 22.3943 26.475 22.0281 28.3202 21.7458L27.9305 20.8152H27.1327C26.9631 20.8152 26.8046 20.7436 26.6971 20.6169L22.5516 17.3171L20.4745 21.4851ZM29.0858 20.6667L29.4559 21.5515L36.2128 20.1951L35.9247 19.28L29.0858 20.6667ZM23.1688 16.4128L27.3924 19.7126H27.4852L25.3114 14.1638L23.1688 16.4128Z" fill="#9D7D2D"/><circle cx="14.2656" cy="20.7013" r="2.0498" fill="#D8E2ED"/></svg>