<?xml version="1.0" encoding="UTF-8"?>
<svg width="38" height="29" viewBox="0 0 38 29" fill="none" class="size-64" xmlns="http://www.w3.org/2000/svg"><path d="M15.7715 1.03031C21.7099 0.705178 25.4263 3.10173 27.6357 5.62992C28.7299 6.88194 29.4445 8.15247 29.8857 9.10941C30.1068 9.58883 30.2612 9.9932 30.3613 10.2823C30.4114 10.4269 30.4478 10.5433 30.4727 10.626C30.4791 10.6475 30.4844 10.6668 30.4893 10.6836C31.332 12.8791 31.836 14.3529 32.292 16.7452L32.4863 17.836L32.4922 17.876V17.878C32.4923 17.8789 32.493 17.8805 32.4932 17.8819C32.4935 17.8846 32.4936 17.8882 32.4941 17.8926C32.4953 17.9021 32.4971 17.9157 32.499 17.9327C32.5029 17.9664 32.5084 18.0147 32.5146 18.0762C32.5272 18.1996 32.5432 18.377 32.5596 18.5977C32.5922 19.0388 32.625 19.6581 32.625 20.375C32.625 21.7904 32.4984 23.666 31.9482 25.3164C31.8009 25.758 31.3687 26.0393 30.9053 25.9952C22.9953 25.2418 14.512 25.6396 6.92383 27.9346C6.48095 28.0684 6.00368 27.8811 5.77051 27.4815L4.36035 25.0625C2.59159 22.4429 1.75409 19.7894 1.35742 17.794C1.15826 16.792 1.0685 15.9501 1.0293 15.3536C1.00968 15.0551 1.00313 14.817 1.00098 14.6504C0.999901 14.5672 0.999498 14.5016 1 14.4551C1.00025 14.4322 1.00068 14.4139 1.00098 14.4004C1.00113 14.3936 1.00183 14.3872 1.00195 14.3829V14.3711C1.00226 14.3572 1.00306 14.3389 1.00391 14.3164C1.00562 14.2709 1.00812 14.2076 1.01367 14.1289C1.02478 13.9717 1.04633 13.7508 1.08594 13.4766C1.1652 12.928 1.31918 12.1634 1.62012 11.2705C2.22297 9.48195 3.41525 7.17658 5.7627 5.0684L6.20312 4.68656C8.41483 2.83824 10.7225 1.92265 12.5137 1.47074C13.4692 1.22966 14.2824 1.11945 14.8623 1.06937C15.1521 1.04436 15.3846 1.03492 15.5488 1.03129C15.6309 1.02948 15.6965 1.02903 15.7432 1.02934C15.7535 1.0294 15.763 1.0302 15.7715 1.03031Z" fill="#3B82F6" stroke="#D8E2ED" stroke-width="2" stroke-linejoin="round"/><path d="M22.5002 18.4997C14.5002 17.4997 13.2927 9.71939 16.0002 10.4997C18.7077 11.28 27.7729 10.9271 29.3899 10.5387C29.4985 10.8446 29.5461 11.0221 29.5461 11.0221V11.0163C30.4839 13.4577 30.9812 14.9493 31.4729 17.8493C30.6121 18.3027 26.9913 19.061 22.5002 18.4997Z" fill="#094fc2" opacity="0.75"/></svg>