<?xml version="1.0" encoding="UTF-8"?>
<svg width="40" height="30" viewBox="0 0 40 30" fill="none" class="size-96" xmlns="http://www.w3.org/2000/svg" xmlns:xlink="http://www.w3.org/1999/xlink"><path d="M15.7715 1.03031C21.7099 0.705174 25.4263 3.10172 27.6357 5.62992C28.7299 6.88194 29.4445 8.15247 29.8857 9.10941C30.1068 9.58883 30.2612 9.9932 30.3613 10.2823C30.4114 10.4269 30.4478 10.5433 30.4727 10.626C30.4804 10.6517 30.4867 10.6743 30.4922 10.6934L30.5342 10.8311C30.7153 11.5185 30.4964 12.1661 30.3359 12.5293C30.2404 12.7456 30.1363 12.927 30.0566 13.0537C30.0163 13.1179 29.98 13.1707 29.9531 13.209C29.9398 13.228 29.9287 13.2438 29.9199 13.2559C29.9155 13.262 29.9114 13.2673 29.9082 13.2715C29.9067 13.2736 29.9055 13.2758 29.9043 13.2774L29.9014 13.2803V13.2813C29.7735 13.4495 29.5949 13.573 29.3926 13.6338C28.0454 14.0391 27.2251 14.6055 26.7207 15.1709C26.2177 15.7349 25.9796 16.3534 25.8838 16.9434C25.7866 17.5423 25.8372 18.1104 25.918 18.5381C25.9579 18.7495 26.0037 18.9202 26.0381 19.0332C26.0454 19.0572 26.0526 19.0783 26.0586 19.0967C26.065 19.1066 26.0722 19.1171 26.0791 19.128C26.1396 19.2237 26.2202 19.3586 26.3096 19.5274C26.4878 19.8638 26.7065 20.3447 26.8721 20.9327C27.2046 22.1134 27.3303 23.7593 26.457 25.501C25.5368 27.3362 23.7312 28.2228 22.1025 28.6368C20.4607 29.054 18.8035 29.0461 17.8555 28.9356L17.8506 28.9346C17.5155 28.8938 17.2007 28.8211 16.9268 28.753C16.9219 28.7517 16.917 28.7503 16.9121 28.7491C16.2831 28.5824 15.648 28.3596 15.0996 28.1592C14.5323 27.9519 13.982 27.7234 13.4473 27.4961C13.0508 27.3289 12.6642 27.1525 12.2734 26.9502L12.2695 26.9483C12.2344 26.93 12.181 26.9115 12.0723 26.9053C11.9457 26.8982 11.8064 26.9087 11.5713 26.9268L11.5703 26.9258C11.106 26.966 10.6599 27.0372 10.1543 27.1368C9.64256 27.2376 9.13191 27.355 8.61133 27.4805C8.20052 27.5847 7.80348 27.6861 7.4082 27.7969C7.18465 27.8621 7.10208 27.8807 6.92383 27.9346C6.48095 28.0684 6.00368 27.8811 5.77051 27.4815L4.35938 25.0606C2.59144 22.4415 1.754 19.7889 1.35742 17.794C1.15826 16.792 1.0685 15.9501 1.0293 15.3535C1.00968 15.0551 1.00313 14.817 1.00098 14.6504C0.999901 14.5672 0.999498 14.5016 1 14.4551C1.00025 14.4322 1.00068 14.4139 1.00098 14.4004C1.00113 14.3936 1.00183 14.3872 1.00195 14.3828V14.3711C1.00226 14.3572 1.00306 14.3389 1.00391 14.3164C1.00562 14.2709 1.00812 14.2076 1.01367 14.1289C1.02478 13.9717 1.04633 13.7508 1.08594 13.4766C1.1652 12.928 1.31918 12.1634 1.62012 11.2705C2.22297 9.48194 3.41525 7.17658 5.7627 5.06839L6.20312 4.68656C8.41483 2.83824 10.7225 1.92265 12.5137 1.47074C13.4692 1.22966 14.2824 1.11944 14.8623 1.06937C15.1521 1.04436 15.3846 1.03491 15.5488 1.03128C15.6309 1.02947 15.6965 1.02902 15.7432 1.02933C15.7535 1.0294 15.763 1.0302 15.7715 1.03031Z" fill="#FFFFFF" stroke="#D8E2ED" stroke-width="2" stroke-linejoin="round"/><path fill-rule="evenodd" clip-rule="evenodd" d="M30.2557 10.365C30.5386 10.2382 30.8776 10.354 31.0077 10.6296C31.1434 10.9053 31.019 11.2362 30.7362 11.363L26.2333 13.4304L28.66 19.6384L36.1961 18.1111C36.4789 18.0561 36.7676 18.216 36.8524 18.4861L37.4803 20.4597C37.4816 20.4638 37.4811 20.4683 37.4823 20.4724C38.6748 23.5926 37.4458 27.2779 37.3895 27.4314C37.3103 27.6627 37.1406 27.8112 36.9032 27.8113H36.8573C36.8133 27.8113 36.7321 27.7956 36.7274 27.7947L30.7528 26.405C30.5833 26.3663 30.4474 26.2565 30.3739 26.1023L28.785 22.7986C25.581 23.293 23.9821 23.5413 23.8172 23.5417H23.7049C23.6088 23.5417 23.405 23.5411 19.5018 22.3503C19.3434 22.3007 19.2181 22.1906 19.1503 22.0417C19.0825 21.8929 19.0885 21.727 19.162 21.5837L21.8378 16.2253C21.8532 16.1915 21.8751 16.1612 21.8993 16.1326C21.9064 16.1234 21.9141 16.1148 21.9217 16.1062C21.9259 16.1019 21.9301 16.0967 21.9344 16.0925L25.0965 12.78C25.1475 12.7249 25.2095 12.6803 25.2831 12.6472L30.2557 10.365ZM29.9286 22.5896L31.2733 25.3913L36.4559 26.5925C36.714 25.6067 37.1758 23.3032 36.5585 21.2595L29.9286 22.5896ZM20.4745 21.4851H20.4686C21.8094 21.8931 23.3995 22.3617 23.7333 22.4333C24.0785 22.3943 26.475 22.0281 28.3202 21.7458L27.9305 20.8152H27.1327C26.9631 20.8152 26.8046 20.7436 26.6971 20.6169L22.5516 17.3171L20.4745 21.4851ZM29.0858 20.6667L29.4559 21.5515L36.2128 20.1951L35.9247 19.28L29.0858 20.6667ZM23.1688 16.4128L27.3924 19.7126H27.4852L25.3114 14.1638L23.1688 16.4128Z" fill="#4F4F4F"/><g transform="translate(11 12) rotate(-13) scale(0.95) translate(-6.5 -6.5)"><g transform="scale(0.0052) translate(0 0)">
<path xmlns="http://www.w3.org/2000/svg" fill-rule="evenodd" clip-rule="evenodd" d="M1759.1 2136C2149.21 2136 2449.37 1819.71 2449.37 1429.55C2449.37 1039.42 2093.26 723.141 1703.1 723.141C1312.97 723.141 996.701 1039.43 996.701 1429.55C996.701 1819.72 1368.95 2136 1759.1 2136Z" fill="#365695"/>
<path xmlns="http://www.w3.org/2000/svg" d="M1759.1 2122.13C1949.14 2122.13 2117.37 2045.58 2238.45 1921.65C2361.06 1796.16 2435.48 1622.05 2435.48 1429.57C2435.48 1241.22 2350.56 1070.33 2218.61 945.419C2082.78 816.824 1897.2 737.034 1703.09 737.034C1511.86 737.034 1338.71 814.554 1213.41 939.881C1088.09 1065.21 1010.57 1238.34 1010.57 1429.57C1010.57 1616.82 1098.37 1786.85 1232.97 1911.55C1373.15 2041.42 1563.87 2122.13 1759.1 2122.13ZM1759.1 2149.9C1556.75 2149.9 1359.17 2066.36 1214.1 1931.94C1074.12 1802.21 982.811 1625.05 982.811 1429.57C982.811 1230.69 1063.43 1050.6 1193.78 920.245C1324.12 789.899 1504.21 709.266 1703.09 709.266C1904.47 709.266 2096.91 791.974 2237.71 925.251C2374.93 1055.14 2463.24 1233.14 2463.24 1429.55C2463.24 1629.47 2385.83 1810.41 2258.28 1940.95C2132.11 2070.09 1956.92 2149.9 1759.1 2149.9Z" fill="#365695"/>
<path xmlns="http://www.w3.org/2000/svg" d="M1755.48 2044.54C1924.2 2044.54 2073.5 1976.63 2180.96 1866.66C2289.84 1755.22 2355.89 1600.57 2355.89 1429.56C2355.89 1262.47 2280.51 1110.81 2163.34 999.915C2042.57 885.587 1877.63 814.629 1705.12 814.629C1535.3 814.629 1381.57 883.46 1270.29 994.74C1158.99 1106.02 1090.16 1259.76 1090.16 1429.56C1090.16 1595.62 1168.12 1746.49 1287.64 1857.24C1412.32 1972.75 1581.91 2044.54 1755.48 2044.54ZM1755.48 2086.18C1571.22 2086.18 1391.4 2010.17 1259.34 1887.81C1131.74 1769.59 1048.52 1607.98 1048.52 1429.56C1048.52 1248.26 1122.02 1084.11 1240.83 965.299C1359.66 846.483 1523.81 772.996 1705.12 772.996C1888.53 772.996 2063.79 848.299 2191.97 969.657C2317.06 1088.06 2397.54 1250.37 2397.54 1429.56C2397.54 1611.72 2327 1776.61 2210.72 1895.62C2095.6 2013.4 1935.84 2086.18 1755.48 2086.18Z" fill="#B9D4E7"/>
<path xmlns="http://www.w3.org/2000/svg" fill-rule="evenodd" clip-rule="evenodd" d="M1636.85 1000.32L1721.76 1000.5L1749.06 923.992L1777.49 999.775H1863.16L1794.21 1052.22L1818.74 1127.41L1749.06 1077.9L1682.67 1126.57L1707.98 1049.64L1636.85 1000.32Z" fill="#CA3132"/>
<path xmlns="http://www.w3.org/2000/svg" d="M1634.9 1003.16L1636.85 996.843L1719.3 997.024L1745.8 922.824L1752.28 922.785L1779.89 996.298H1863.16L1865.26 1002.54L1798.26 1053.49L1822.02 1126.33L1816.73 1130.22L1749.09 1082.17L1684.7 1129.37L1679.38 1125.49L1703.88 1051.02L1634.9 1003.16ZM1647.96 1003.81L1709.95 1046.8L1712.07 1048.28L1711.27 1050.73L1689.34 1117.38L1747.02 1075.11L1749.01 1073.64L1751.06 1075.09L1812.19 1118.51L1790.9 1053.3L1790.11 1050.95L1792.08 1049.46L1852.84 1003.25H1775.09L1774.24 1000.99L1749.13 934.082L1725.02 1001.68L1724.19 1003.99H1721.75L1647.96 1003.81Z" fill="#CA3132"/>
<path xmlns="http://www.w3.org/2000/svg" fill-rule="evenodd" clip-rule="evenodd" d="M1303.11 1578.19L1382.4 1608.48L1435.05 1546.64L1434.75 1627.58L1514.86 1658L1431.77 1682.55L1428.02 1761.55L1380.45 1690.53L1301.1 1712.46L1352.1 1649.55L1303.11 1578.19Z" fill="#CA3132"/>
<path xmlns="http://www.w3.org/2000/svg" d="M1300.24 1580.16L1304.34 1574.97L1381.33 1604.36L1432.42 1544.4L1438.53 1546.66L1438.26 1625.22L1516.07 1654.77L1515.84 1661.34L1435.1 1685.18L1431.49 1761.72L1425.16 1763.5L1378.97 1694.55L1302.03 1715.84L1298.42 1710.31L1347.77 1649.39L1300.24 1580.16ZM1312.25 1585.4L1354.94 1647.59L1356.4 1649.69L1354.76 1651.71L1310.58 1706.25L1379.53 1687.2L1381.94 1686.51L1383.33 1688.59L1425.05 1750.88L1428.3 1682.39L1428.4 1679.94L1430.79 1679.22L1504.01 1657.59L1433.54 1630.82L1431.28 1629.96V1627.58L1431.55 1556.11L1385.04 1610.73L1383.45 1612.58L1381.16 1611.73L1312.25 1585.4Z" fill="#CA3132"/>
<path xmlns="http://www.w3.org/2000/svg" fill-rule="evenodd" clip-rule="evenodd" d="M2052.39 1542.61L2111.33 1603.68L2185.27 1570L2150.67 1643.2L2210.31 1704.69L2124.65 1691.7L2087.76 1761.66L2074.79 1677.14L1993.65 1663.4L2066.47 1628L2052.39 1542.61Z" fill="#CA3132"/>
<path xmlns="http://www.w3.org/2000/svg" d="M2048.96 1543.17L2054.87 1540.2L2112.14 1599.52L2183.85 1566.84L2188.42 1571.47L2154.82 1642.5L2212.79 1702.26L2209.8 1708.08L2126.56 1695.46L2090.82 1763.25L2084.33 1762.16L2071.74 1680.12L1993.06 1666.77L1992.13 1660.26L2062.66 1625.98L2048.96 1543.17ZM2057.6 1553L2069.88 1627.45L2070.31 1629.98L2067.98 1631.12L2004.85 1661.76L2075.33 1673.72L2077.81 1674.15L2078.19 1676.63L2089.59 1750.75L2121.58 1690.05L2122.72 1687.87L2125.16 1688.25L2200.67 1699.7L2148.18 1645.59L2146.51 1643.87L2147.52 1641.69L2178.09 1577.05L2112.76 1606.81L2110.53 1607.82L2108.83 1606.07L2057.6 1553Z" fill="#CA3132"/>
<path xmlns="http://www.w3.org/2000/svg" fill-rule="evenodd" clip-rule="evenodd" d="M2192.05 1209.61H1300.06L1383.86 1425.13L1425.79 1341.33H1605.38L1743.04 1933.96L1898.72 1335.3H2054.36L2120.23 1425.13L2192.05 1209.61Z" fill="white"/>
<path xmlns="http://www.w3.org/2000/svg" d="M2187.23 1213.08H1305.13L1384.28 1416.58L1422.68 1339.78L1423.64 1337.86H1608.13L1608.77 1340.54L1743.25 1919.5L1895.39 1334.45L1896.05 1331.84H2056.1L2057.16 1333.28L2119.07 1417.66L2187.23 1213.08ZM2196.86 1206.14L2195.34 1210.69L2123.53 1426.19L2121.4 1432.58L2117.44 1427.15L2052.62 1338.78H1901.39L1746.42 1934.86L1739.67 1934.75L1602.64 1344.78H1427.92L1386.97 1426.67L1383.47 1433.67L1380.63 1426.38L1296.85 1210.86L1294.99 1206.14H2196.86Z" fill="white"/>
<path xmlns="http://www.w3.org/2000/svg" fill-rule="evenodd" clip-rule="evenodd" d="M1731.09 1856.17V1293.43L1749.06 1251.52H1707.14L1665.25 1299.41H1449.72L1455.7 1323.34H1599.4L1731.09 1856.17Z" fill="#E4E5E8"/>
<path xmlns="http://www.w3.org/2000/svg" d="M1727.61 1827.7V1293.43L1727.91 1292.07L1743.8 1255.02H1708.69L1667.83 1301.71L1666.8 1302.9H1454.16L1458.41 1319.91H1602.09L1602.75 1322.56L1727.61 1827.7ZM1734.55 1856.17L1727.74 1856.97L1596.69 1326.81H1453.02L1452.35 1324.17L1446.35 1300.23L1445.29 1295.92H1663.67L1704.52 1249.22L1705.56 1248.03H1754.3L1752.23 1252.85L1734.55 1294.1V1856.17Z" fill="#E4E5E8"/>
<path xmlns="http://www.w3.org/2000/svg" fill-rule="evenodd" clip-rule="evenodd" d="M1846.83 732.687C1691.45 515.249 1413.81 604.974 1413.81 604.974C1469.91 618.073 1487.93 645.634 1487.93 645.634C1543.88 730.573 1371.92 706.735 1371.92 706.735C1255.78 672.144 1240.95 587.335 1114.8 517.363C929.387 414.539 761.273 539.1 761.273 539.1C1012.72 581.019 970.812 706.735 970.812 706.735C838.171 710.885 800.623 690.133 800.623 690.133C631.173 598.23 656.036 552.55 551.746 455.29C352.064 269.083 42.8906 425.382 42.8906 425.382C204.533 449.311 276.359 598.982 276.359 598.982C364.32 880.957 524.38 936.092 524.38 936.092L672.78 975.312L596.466 994.391C361.13 1031.48 294.361 817.38 294.361 817.38C177.672 1256.77 635.557 1269.47 635.557 1269.47C964.82 1377.23 886.976 1467.02 886.976 1467.02C869.026 1508.91 785.215 1467.02 785.215 1467.02C857.055 1778.32 1124.45 1838.18 1124.45 1838.18L1059.46 1403.74L1134.08 1058.59L1297.31 932.668L1451.23 806.732L1651.78 755.436L1846.83 732.687Z" fill="#365695"/>
<path xmlns="http://www.w3.org/2000/svg" d="M1821.01 721.742C1708.35 584.405 1540.89 593.899 1462.03 607.932C1489.14 622.238 1499.37 637.841 1499.42 637.905L1499.52 638.022C1572.43 748.667 1370.68 720.549 1370.1 720.471L1367.92 720.043C1301.29 700.186 1266.9 665.233 1228.04 625.74C1197.37 594.561 1163.74 560.359 1108.07 529.491C976.052 456.277 853.449 503.253 799.002 532.319C1026.56 582.836 984.145 710.432 984.042 710.809L981.097 720.315L971.24 720.614C834.967 724.881 794.294 702.443 794.164 702.378L794.009 702.326C683.363 642.315 653.416 601.344 618.554 553.667C599.644 527.779 579.19 499.829 542.317 465.434C391.388 324.673 174.637 387.291 87.4936 421.181C226.491 463.021 288.655 592.498 288.849 592.9L289.601 594.846C372.426 860.389 517.817 918.857 528.466 922.838L676.308 961.903L676.152 988.738L599.838 1007.83L598.593 1008.05C417.743 1036.54 331.727 923.824 298.499 861.063C223.884 1244.14 634.831 1255.54 636.037 1255.59L639.837 1256.3C963.951 1362.4 908.532 1460.63 898.934 1474.16C882.359 1509.11 835.369 1500.2 805.409 1490.14C870.102 1721.65 1047.63 1798.93 1107.54 1818.84L1045.75 1405.75L1045.92 1400.81L1120.54 1055.67L1125.63 1047.65L1288.86 921.736L1288.53 921.956L1442.44 796.02L1447.81 793.309L1648.37 742.014L1650.22 741.69L1821.01 721.742ZM1858.13 724.673L1871.76 743.739L1848.4 746.462L1654.44 769.095L1457.66 819.417L1306.12 943.421L1305.8 943.642L1146.59 1066.44L1073.57 1404.21L1138.19 1836.19L1141.2 1856.39L1121.31 1851.71C1120.52 1851.53 845.524 1789.94 771.714 1470.14L765.164 1441.72L791.298 1454.59C791.505 1454.69 862.139 1489.88 874.252 1461.63L876.263 1458.33C876.431 1458.1 940.865 1384.39 633.196 1283.29C601.252 1281.85 164.028 1254.24 280.977 813.866L307.539 813.166C307.733 813.737 370.637 1015.44 593.457 980.878L617.153 974.951L520.852 949.504L519.659 949.128C519.179 948.946 353.594 891.866 263.506 604.288C257.838 592.978 188.787 461.024 40.8802 439.131L36.7559 412.958C37.6767 412.504 354.424 252.34 561.175 445.149C599.981 481.334 621.225 510.387 640.888 537.286C673.74 582.226 701.962 620.837 807.238 677.943L807.069 677.891C807.173 677.943 839.416 695.828 959.373 693.17C962.213 665.531 952.888 585.106 758.99 552.785L726.345 547.351L753.128 527.909C753.634 527.546 928.259 398.146 1121.51 505.303C1180.68 538.129 1215.77 573.796 1247.77 606.337C1283.76 642.925 1315.65 675.323 1374.98 693.222C1389.06 694.998 1513.18 709.278 1476.3 653.314L1476.4 653.417C1476.35 653.352 1461.35 630.344 1410.64 618.503L1409.66 591.772C1410.51 591.487 1696.81 498.947 1858.13 724.673Z" fill="#365695"/>
<path xmlns="http://www.w3.org/2000/svg" fill-rule="evenodd" clip-rule="evenodd" d="M778.458 752.247C778.458 752.247 639.526 685.764 538.271 556.351C538.271 556.351 468.299 383.776 238.268 415.189C238.268 415.189 375.034 493.396 441.815 624.702C441.815 624.702 521.034 776.189 778.458 752.247Z" fill="#CA3132"/>
<path xmlns="http://www.w3.org/2000/svg" d="M772.194 751.027C745.45 737.253 626.582 672.028 536.909 557.415L536.676 557.025C536.468 556.533 468.182 388.211 243.481 416.278C267.281 430.791 383.321 505.86 443.358 623.898L443.332 623.859C443.566 624.3 520.801 771.934 772.194 751.027ZM779.21 750.677L778.614 753.958C520.049 778.017 440.531 625.96 440.297 625.519L440.271 625.48C373.711 494.628 237.788 416.9 237.398 416.68L238.034 413.463C465.109 382.465 537 548.829 539.776 555.469C640.758 684.427 778.808 750.482 779.21 750.677Z" fill="#CA3132"/>
<path xmlns="http://www.w3.org/2000/svg" fill-rule="evenodd" clip-rule="evenodd" d="M872.515 1338.2C872.515 1338.2 878.494 1200.51 591.162 1128.66C591.162 1128.66 399.586 1104.73 327.746 967.027C327.746 967.027 351.701 1158.6 549.257 1206.49C549.257 1206.49 758.783 1230.44 872.515 1338.2Z" fill="#CA3132"/>
<path xmlns="http://www.w3.org/2000/svg" d="M870.661 1334.11C869.04 1311.09 847.99 1194.69 590.825 1130.37C586.61 1129.82 406.136 1106.04 331.209 976.884C339.29 1016.77 380.17 1163.66 549.529 1204.79C553.213 1205.22 756.734 1229.18 870.661 1334.11ZM874.253 1338.22L874.176 1342.15L871.322 1339.44C758.018 1232.12 549.646 1208.29 549.05 1208.21L548.842 1208.17C350.119 1159.99 326.099 967.818 326.021 967.26L329.277 966.223C400.701 1103.11 590.838 1126.87 591.37 1126.94L591.564 1126.97C880.284 1199.16 874.266 1337.81 874.253 1338.22Z" fill="#CA3132"/>
<path xmlns="http://www.w3.org/2000/svg" fill-rule="evenodd" clip-rule="evenodd" d="M1294.06 703.738C1182.65 632.923 1146.6 567.193 1078.55 533.121C1078.55 533.121 994.729 503.187 904.939 515.158L851.062 530.138C851.062 530.138 1015.96 533.51 1095.72 623.365C1175.49 713.245 1294.06 703.738 1294.06 703.738Z" fill="#CA3132"/>
<path xmlns="http://www.w3.org/2000/svg" fill-rule="evenodd" clip-rule="evenodd" d="M1826.86 778.574C1826.86 778.574 1712.63 614.882 1527.14 643.52C1527.14 643.52 1636.47 702.312 1575.45 730.676C1514.43 759.067 1308.78 845.991 1103.78 685.477C1103.78 685.477 1044.85 636.101 976.793 581.031C976.793 581.031 1022.16 685.477 1072.57 760.637C1072.57 760.637 1156.39 862.397 1294.06 862.397C1294.06 862.397 1347.96 868.376 1330 886.352C1330 886.352 1272.11 992.108 1126.44 898.324C946.21 782.27 922.903 808.521 863.035 808.521C863.035 808.521 539.763 898.324 384.113 634.908C384.113 634.908 384.113 874.368 749.303 940.229C749.303 940.229 1072.57 964.184 1078.55 1287.47C1078.55 1287.47 965.691 1003.95 585.495 1070.37C585.495 1070.37 991.124 1124.08 992.538 1505.67C992.538 1505.67 985.469 1598.94 839.897 1529.72C839.897 1529.72 910.919 1688.55 1138.41 1772.37H1162.36C1162.38 1772.34 779.237 868.376 1826.86 778.574Z" fill="#B9D4E7"/>
<path xmlns="http://www.w3.org/2000/svg" d="M1753.68 2016.5C1914.74 2016.5 2057.3 1951.65 2159.89 1846.62C2263.81 1740.28 2326.88 1592.73 2326.88 1429.57C2326.88 1269.97 2254.91 1125.18 2143.1 1019.32C2027.91 910.309 1870.6 842.646 1706.08 842.646C1544.01 842.646 1397.26 908.351 1291.08 1014.56C1184.87 1120.76 1119.16 1267.48 1119.16 1429.57C1119.16 1588.19 1193.57 1732.26 1307.65 1837.96C1426.47 1948.07 1588.19 2016.5 1753.68 2016.5ZM1753.68 2044.26C1581.07 2044.26 1412.51 1973 1288.77 1858.35C1169.31 1747.65 1091.39 1596.45 1091.39 1429.55C1091.39 1259.83 1160.2 1106.17 1271.44 994.924C1382.67 883.695 1536.33 814.891 1706.08 814.891C1877.91 814.891 2042.08 885.446 2162.18 999.152C2279.28 1110 2354.62 1261.92 2354.62 1429.57C2354.62 1600.15 2288.58 1754.55 2179.74 1865.93C2072.02 1976.16 1922.51 2044.26 1753.68 2044.26Z" fill="white"/>
</g></g><circle cx="14.2656" cy="20.7013" r="2.0498" fill="#D8E2ED"/></svg>